<?xml version="1.0" encoding="UTF-8"?>
<svg width="310" height="960" xmlns="http://www.w3.org/2000/svg" xmlns:xlink="http://www.w3.org/1999/xlink">
<defs>
<marker id="arrow-component" viewBox="0 0 10 10" refX="9" refY="5" markerWidth="10" markerHeight="10" orient="auto-start-reverse"><path d="M 0 0 L 10 5 L 0 10 z" fill="#5B9BD5"></path></marker>
<marker id="arrow-black" viewBox="0 0 10 10" refX="9" refY="5" markerWidth="10" markerHeight="10" orient="auto-start-reverse"><path d="M 0 0 L 10 5 L 0 10 z" fill="#000000"></path></marker>
</defs>

<rect x="0" y="0" width="310" height="960" fill="#FFFFFF" stroke="none" />
<g id="component-LC-Rad"><rect x="40" y="580" width="150" height="80" rx="8" ry="8" fill="#5B9BD5" stroke="#000000" stroke-width="2" />
<text x="115" y="605" text-anchor="middle" font-family="Arial, sans-serif" font-size="12" font-weight="bold" fill="#FFFFFF">Radar Sensor</text>
<text x="180" y="594" text-anchor="end" font-family="Arial, sans-serif" font-size="10" fill="#E8F4F8">LC-Rad</text></g>
<g id="component-LC-Vis"><rect x="40" y="760" width="150" height="80" rx="8" ry="8" fill="#5B9BD5" stroke="#000000" stroke-width="2" />
<text x="115" y="785" text-anchor="middle" font-family="Arial, sans-serif" font-size="12" font-weight="bold" fill="#FFFFFF">Vision Camera</text>
<text x="180" y="774" text-anchor="end" font-family="Arial, sans-serif" font-size="10" fill="#E8F4F8">LC-Vis</text></g>
<g id="component-LC-Sen"><rect x="40" y="40" width="150" height="80" rx="8" ry="8" fill="#5B9BD5" stroke="#000000" stroke-width="2" />
<text x="115" y="65" text-anchor="middle" font-family="Arial, sans-serif" font-size="12" font-weight="bold" fill="#FFFFFF">Sensor Fusion</text>
<text x="180" y="54" text-anchor="end" font-family="Arial, sans-serif" font-size="10" fill="#E8F4F8">LC-Sen</text></g>
<g id="component-LC-ACC"><rect x="40" y="220" width="150" height="80" rx="8" ry="8" fill="#5B9BD5" stroke="#000000" stroke-width="2" />
<text x="115" y="245" text-anchor="middle" font-family="Arial, sans-serif" font-size="12" font-weight="bold" fill="#FFFFFF">ACC Controller</text>
<text x="180" y="234" text-anchor="end" font-family="Arial, sans-serif" font-size="10" fill="#E8F4F8">LC-ACC</text></g>
<g id="component-LC-Act"><rect x="40" y="400" width="150" height="80" rx="8" ry="8" fill="#5B9BD5" stroke="#000000" stroke-width="2" />
<text x="115" y="425" text-anchor="middle" font-family="Arial, sans-serif" font-size="12" font-weight="bold" fill="#FFFFFF">Actuator Interface</text>
<text x="180" y="414" text-anchor="end" font-family="Arial, sans-serif" font-size="10" fill="#E8F4F8">LC-Act</text></g>
<text x="20" y="30" font-family="Arial, sans-serif" font-size="18" font-weight="bold" fill="#212529">ACC Logical Architecture</text>
</svg>