<?xml version="1.0" encoding="UTF-8"?>
<svg width="1390" height="780" xmlns="http://www.w3.org/2000/svg" xmlns:xlink="http://www.w3.org/1999/xlink">
<defs>
<marker id="arrow-black" viewBox="0 0 10 10" refX="9" refY="5" markerWidth="10" markerHeight="10" orient="auto-start-reverse"><path d="M 0 0 L 10 5 L 0 10 z" fill="#000000"></path></marker>
<marker id="arrow-blue" viewBox="0 0 10 10" refX="9" refY="5" markerWidth="10" markerHeight="10" orient="auto-start-reverse"><path d="M 0 0 L 10 5 L 0 10 z" fill="#2E75B6"></path></marker>
</defs>

<rect x="0" y="0" width="1390" height="780" rx="0" ry="0" fill="#FFFFFF" stroke="none" />
<g id="swimlane-Driver"><rect x="0" y="60" width="1390" height="120" rx="5" ry="5" fill="#F8F9FA" stroke="#CED4DA" stroke-width="2" />
<rect x="0" y="60" width="200" height="120" rx="5" ry="5" fill="#E9ECEF" stroke="#CED4DA" stroke-width="2" />
<g ><circle cx="100" cy="112" r="12" fill="none" stroke="#2E75B6" stroke-width="2" />
<line x1="100" y1="124" x2="100" y2="154" stroke="#2E75B6" stroke-width="2" />
<line x1="82" y1="133" x2="118" y2="133" stroke="#2E75B6" stroke-width="2" />
<line x1="100" y1="154" x2="85" y2="169" stroke="#2E75B6" stroke-width="2" />
<line x1="100" y1="154" x2="115" y2="169" stroke="#2E75B6" stroke-width="2" /></g>
<text x="100" y="170" text-anchor="middle" font-family="Arial, sans-serif" font-size="12" font-weight="bold" fill="#212529">Driver</text></g>
<g id="swimlane-ACC System"><rect x="0" y="200" width="1390" height="120" rx="5" ry="5" fill="#F8F9FA" stroke="#CED4DA" stroke-width="2" />
<rect x="0" y="200" width="200" height="120" rx="5" ry="5" fill="#E9ECEF" stroke="#CED4DA" stroke-width="2" />
<g ><circle cx="100" cy="252" r="12" fill="none" stroke="#2E75B6" stroke-width="2" />
<line x1="100" y1="264" x2="100" y2="294" stroke="#2E75B6" stroke-width="2" />
<line x1="82" y1="273" x2="118" y2="273" stroke="#2E75B6" stroke-width="2" />
<line x1="100" y1="294" x2="85" y2="309" stroke="#2E75B6" stroke-width="2" />
<line x1="100" y1="294" x2="115" y2="309" stroke="#2E75B6" stroke-width="2" /></g>
<text x="100" y="310" text-anchor="middle" font-family="Arial, sans-serif" font-size="12" font-weight="bold" fill="#212529">ACC System</text></g>
<g id="swimlane-Vehicle Sensors"><rect x="0" y="340" width="1390" height="120" rx="5" ry="5" fill="#F8F9FA" stroke="#CED4DA" stroke-width="2" />
<rect x="0" y="340" width="200" height="120" rx="5" ry="5" fill="#E9ECEF" stroke="#CED4DA" stroke-width="2" />
<g ><circle cx="100" cy="392" r="12" fill="none" stroke="#2E75B6" stroke-width="2" />
<line x1="100" y1="404" x2="100" y2="434" stroke="#2E75B6" stroke-width="2" />
<line x1="82" y1="413" x2="118" y2="413" stroke="#2E75B6" stroke-width="2" />
<line x1="100" y1="434" x2="85" y2="449" stroke="#2E75B6" stroke-width="2" />
<line x1="100" y1="434" x2="115" y2="449" stroke="#2E75B6" stroke-width="2" /></g>
<text x="100" y="450" text-anchor="middle" font-family="Arial, sans-serif" font-size="12" font-weight="bold" fill="#212529">Vehicle Sensors</text></g>
<g id="swimlane-Traffic Infrastructure"><rect x="0" y="480" width="1390" height="120" rx="5" ry="5" fill="#F8F9FA" stroke="#CED4DA" stroke-width="2" />
<rect x="0" y="480" width="200" height="120" rx="5" ry="5" fill="#E9ECEF" stroke="#CED4DA" stroke-width="2" />
<g ><circle cx="100" cy="532" r="12" fill="none" stroke="#2E75B6" stroke-width="2" />
<line x1="100" y1="544" x2="100" y2="574" stroke="#2E75B6" stroke-width="2" />
<line x1="82" y1="553" x2="118" y2="553" stroke="#2E75B6" stroke-width="2" />
<line x1="100" y1="574" x2="85" y2="589" stroke="#2E75B6" stroke-width="2" />
<line x1="100" y1="574" x2="115" y2="589" stroke="#2E75B6" stroke-width="2" /></g>
<text x="100" y="590" text-anchor="middle" font-family="Arial, sans-serif" font-size="12" font-weight="bold" fill="#212529">Traffic Infrastructure</text></g>
<g id="swimlane-Lead Vehicle"><rect x="0" y="620" width="1390" height="120" rx="5" ry="5" fill="#F8F9FA" stroke="#CED4DA" stroke-width="2" />
<rect x="0" y="620" width="200" height="120" rx="5" ry="5" fill="#E9ECEF" stroke="#CED4DA" stroke-width="2" />
<g ><circle cx="100" cy="672" r="12" fill="none" stroke="#2E75B6" stroke-width="2" />
<line x1="100" y1="684" x2="100" y2="714" stroke="#2E75B6" stroke-width="2" />
<line x1="82" y1="693" x2="118" y2="693" stroke="#2E75B6" stroke-width="2" />
<line x1="100" y1="714" x2="85" y2="729" stroke="#2E75B6" stroke-width="2" />
<line x1="100" y1="714" x2="115" y2="729" stroke="#2E75B6" stroke-width="2" /></g>
<text x="100" y="730" text-anchor="middle" font-family="Arial, sans-serif" font-size="12" font-weight="bold" fill="#212529">Lead Vehicle</text></g>
<g id="edge-OA-001-OA-003"><path d="M 350 130 L 390 130 Q 400 130, 400 140 L 400 260 Q 400 270, 410 270 L 450 270" fill="none" stroke="#000000" stroke-width="2" marker-end="url(#arrow-black)"></path>
<rect x="347" y="260" width="106" height="20" rx="3" ry="3" fill="#FFFFFF" stroke="#CED4DA" stroke-width="1" />
<text x="400" y="270" text-anchor="middle" dominant-baseline="middle" font-family="Arial, sans-serif" font-size="11" fill="#495057">ACC Activation</text></g>
<g id="edge-OA-002-OA-003"><path d="M 350 250 L 390 250 Q 400 250, 400 260 L 400 260 Q 400 270, 410 270 L 450 270" fill="none" stroke="#000000" stroke-width="2" marker-end="url(#arrow-black)"></path>
<rect x="326" y="260" width="148" height="20" rx="3" ry="3" fill="#FFFFFF" stroke="#CED4DA" stroke-width="1" />
<text x="400" y="270" text-anchor="middle" dominant-baseline="middle" font-family="Arial, sans-serif" font-size="11" fill="#495057">Desired Speed (km/h)</text></g>
<g id="edge-OA-003-OA-005"><path d="M 600 270 L 535 270 Q 525 270, 525 280 L 525 380 Q 525 390, 515 390 L 450 390" fill="none" stroke="#000000" stroke-width="2" marker-end="url(#arrow-black)"></path>
<rect x="465" y="380" width="120" height="20" rx="3" ry="3" fill="#FFFFFF" stroke="#CED4DA" stroke-width="1" />
<text x="525" y="390" text-anchor="middle" dominant-baseline="middle" font-family="Arial, sans-serif" font-size="11" fill="#495057">Control Settings</text></g>
<g id="edge-OA-004-OA-005"><path d="M 600 410 L 535 410 Q 525 410, 525 400 L 525 400 Q 525 390, 515 390 L 450 390" fill="none" stroke="#000000" stroke-width="2" marker-end="url(#arrow-black)"></path>
<rect x="461.5" y="380" width="127" height="20" rx="3" ry="3" fill="#FFFFFF" stroke="#CED4DA" stroke-width="1" />
<text x="525" y="390" text-anchor="middle" dominant-baseline="middle" font-family="Arial, sans-serif" font-size="11" fill="#495057">Detected Vehicles</text></g>
<g id="edge-OA-009-OA-004"><path d="M 350 690 L 390 690 Q 400 690, 400 680 L 400 420 Q 400 410, 410 410 L 450 410" fill="none" stroke="#000000" stroke-width="2" marker-end="url(#arrow-black)"></path>
<rect x="333" y="400" width="134" height="20" rx="3" ry="3" fill="#FFFFFF" stroke="#CED4DA" stroke-width="1" />
<text x="400" y="410" text-anchor="middle" dominant-baseline="middle" font-family="Arial, sans-serif" font-size="11" fill="#495057">Lead Vehicle State</text></g>
<g id="edge-OA-008-OA-005"><path d="M 350 550 L 390 550 Q 400 550, 400 540 L 400 400 Q 400 390, 410 390 L 450 390" fill="none" stroke="#000000" stroke-width="2" marker-end="url(#arrow-black)"></path>
<rect x="343.5" y="380" width="113" height="20" rx="3" ry="3" fill="#FFFFFF" stroke="#CED4DA" stroke-width="1" />
<text x="400" y="390" text-anchor="middle" dominant-baseline="middle" font-family="Arial, sans-serif" font-size="11" fill="#495057">Traffic Updates</text></g>
<g id="edge-OA-005-OA-006"><path d="M 600 390 L 640 390 Q 650 390, 650 380 L 650 280 Q 650 270, 660 270 L 700 270" fill="none" stroke="#000000" stroke-width="2" marker-end="url(#arrow-black)"></path>
<rect x="576" y="260" width="148" height="20" rx="3" ry="3" fill="#FFFFFF" stroke="#CED4DA" stroke-width="1" />
<text x="650" y="270" text-anchor="middle" dominant-baseline="middle" font-family="Arial, sans-serif" font-size="11" fill="#495057">Target Speed Command</text></g>
<g id="edge-OA-006-OA-007"><path d="M 850 270 L 890 270 Q 900 270, NaN NaN L NaN NaN Q 900 270, 910 270 L 950 270" fill="none" stroke="#000000" stroke-width="2" marker-end="url(#arrow-black)"></path>
<rect x="847" y="260" width="106" height="20" rx="3" ry="3" fill="#FFFFFF" stroke="#CED4DA" stroke-width="1" />
<text x="900" y="270" text-anchor="middle" dominant-baseline="middle" font-family="Arial, sans-serif" font-size="11" fill="#495057">Control Status</text></g>
<g id="edge-OA-007-OA-010"><path d="M 1100 270 L 1140 270 Q 1150 270, 1150 260 L 1150 140 Q 1150 130, 1160 130 L 1200 130" fill="none" stroke="#000000" stroke-width="2" marker-end="url(#arrow-black)"></path>
<rect x="1097" y="120" width="106" height="20" rx="3" ry="3" fill="#FFFFFF" stroke="#CED4DA" stroke-width="1" />
<text x="1150" y="130" text-anchor="middle" dominant-baseline="middle" font-family="Arial, sans-serif" font-size="11" fill="#495057">Status Display</text></g>
<g id="node-OA-001"><rect x="200" y="90" width="150" height="80" rx="8" ry="8" fill="#FFD966" stroke="#000000" stroke-width="2" />
<path d="M 6,6 L 14,6 L 14,14 L 6,14 Z" transform="translate(210, 100) scale(1)" fill="none" stroke="#000000" stroke-width="1.5" stroke-linecap="round" stroke-linejoin="round"></path>
<text x="275" y="122" text-anchor="middle" dominant-baseline="middle" font-family="Arial, sans-serif" font-size="12" fill="#000000">Press ACC Button</text>
<text x="345" y="102" text-anchor="end" font-family="Arial, sans-serif" font-size="10" fill="#6C757D">OA-001</text></g>
<g id="node-OA-002"><rect x="200" y="210" width="150" height="80" rx="8" ry="8" fill="#FFD966" stroke="#000000" stroke-width="2" />
<path d="M 6,6 L 14,6 L 14,14 L 6,14 Z" transform="translate(210, 220) scale(1)" fill="none" stroke="#000000" stroke-width="1.5" stroke-linecap="round" stroke-linejoin="round"></path>
<text x="275" y="242" text-anchor="middle" dominant-baseline="middle" font-family="Arial, sans-serif" font-size="12" fill="#000000">Set Desired Speed</text>
<text x="345" y="222" text-anchor="end" font-family="Arial, sans-serif" font-size="10" fill="#6C757D">OA-002</text></g>
<g id="node-OA-003"><rect x="450" y="230" width="150" height="80" rx="8" ry="8" fill="#B4D7A8" stroke="#000000" stroke-width="2" />
<path d="M 6,6 L 14,6 L 14,14 L 6,14 Z" transform="translate(460, 240) scale(1)" fill="none" stroke="#000000" stroke-width="1.5" stroke-linecap="round" stroke-linejoin="round"></path>
<text x="525" y="254" text-anchor="middle" dominant-baseline="middle" font-family="Arial, sans-serif" font-size="12" fill="#000000">Monitor Driver</text>
<text x="525" y="270" text-anchor="middle" dominant-baseline="middle" font-family="Arial, sans-serif" font-size="12" fill="#000000">Input</text>
<text x="595" y="242" text-anchor="end" font-family="Arial, sans-serif" font-size="10" fill="#6C757D">OA-003</text></g>
<g id="node-OA-004"><rect x="450" y="370" width="150" height="80" rx="8" ry="8" fill="#9FC5E8" stroke="#000000" stroke-width="2" />
<path d="M 6,6 L 14,6 L 14,14 L 6,14 Z" transform="translate(460, 380) scale(1)" fill="none" stroke="#000000" stroke-width="1.5" stroke-linecap="round" stroke-linejoin="round"></path>
<text x="525" y="402" text-anchor="middle" dominant-baseline="middle" font-family="Arial, sans-serif" font-size="12" fill="#000000">Scan Environment</text>
<text x="595" y="382" text-anchor="end" font-family="Arial, sans-serif" font-size="10" fill="#6C757D">OA-004</text></g>
<g id="node-OA-005"><rect x="450" y="350" width="150" height="80" rx="8" ry="8" fill="#FFD966" stroke="#000000" stroke-width="2" />
<path d="M 6,6 L 14,6 L 14,14 L 6,14 Z" transform="translate(460, 360) scale(1)" fill="none" stroke="#000000" stroke-width="1.5" stroke-linecap="round" stroke-linejoin="round"></path>
<text x="525" y="374" text-anchor="middle" dominant-baseline="middle" font-family="Arial, sans-serif" font-size="12" fill="#000000">Calculate Safe</text>
<text x="525" y="390" text-anchor="middle" dominant-baseline="middle" font-family="Arial, sans-serif" font-size="12" fill="#000000">Distance</text>
<text x="595" y="362" text-anchor="end" font-family="Arial, sans-serif" font-size="10" fill="#6C757D">OA-005</text></g>
<g id="node-OA-006"><rect x="700" y="230" width="150" height="80" rx="8" ry="8" fill="#F4CCCC" stroke="#000000" stroke-width="2" />
<path d="M 6,6 L 14,6 L 14,14 L 6,14 Z" transform="translate(710, 240) scale(1)" fill="none" stroke="#000000" stroke-width="1.5" stroke-linecap="round" stroke-linejoin="round"></path>
<text x="775" y="254" text-anchor="middle" dominant-baseline="middle" font-family="Arial, sans-serif" font-size="12" fill="#000000">Adjust Vehicle</text>
<text x="775" y="270" text-anchor="middle" dominant-baseline="middle" font-family="Arial, sans-serif" font-size="12" fill="#000000">Speed</text>
<text x="845" y="242" text-anchor="end" font-family="Arial, sans-serif" font-size="10" fill="#6C757D">OA-006</text></g>
<g id="node-OA-007"><rect x="950" y="230" width="150" height="80" rx="8" ry="8" fill="#B4D7A8" stroke="#000000" stroke-width="2" />
<path d="M 6,6 L 14,6 L 14,14 L 6,14 Z" transform="translate(960, 240) scale(1)" fill="none" stroke="#000000" stroke-width="1.5" stroke-linecap="round" stroke-linejoin="round"></path>
<text x="1025" y="262" text-anchor="middle" dominant-baseline="middle" font-family="Arial, sans-serif" font-size="12" fill="#000000">Display Status</text>
<text x="1095" y="242" text-anchor="end" font-family="Arial, sans-serif" font-size="10" fill="#6C757D">OA-007</text></g>
<g id="node-OA-008"><rect x="200" y="510" width="150" height="80" rx="8" ry="8" fill="#D9D2E9" stroke="#000000" stroke-width="2" />
<path d="M 6,6 L 14,6 L 14,14 L 6,14 Z" transform="translate(210, 520) scale(1)" fill="none" stroke="#000000" stroke-width="1.5" stroke-linecap="round" stroke-linejoin="round"></path>
<text x="275" y="534" text-anchor="middle" dominant-baseline="middle" font-family="Arial, sans-serif" font-size="12" fill="#000000">Broadcast Traffic</text>
<text x="275" y="550" text-anchor="middle" dominant-baseline="middle" font-family="Arial, sans-serif" font-size="12" fill="#000000">Data</text>
<text x="345" y="522" text-anchor="end" font-family="Arial, sans-serif" font-size="10" fill="#6C757D">OA-008</text></g>
<g id="node-OA-009"><rect x="200" y="650" width="150" height="80" rx="8" ry="8" fill="#E8E8E8" stroke="#000000" stroke-width="2" />
<path d="M 6,6 L 14,6 L 14,14 L 6,14 Z" transform="translate(210, 660) scale(1)" fill="none" stroke="#000000" stroke-width="1.5" stroke-linecap="round" stroke-linejoin="round"></path>
<text x="275" y="674" text-anchor="middle" dominant-baseline="middle" font-family="Arial, sans-serif" font-size="12" fill="#000000">Maintain Constant</text>
<text x="275" y="690" text-anchor="middle" dominant-baseline="middle" font-family="Arial, sans-serif" font-size="12" fill="#000000">Speed</text>
<text x="345" y="662" text-anchor="end" font-family="Arial, sans-serif" font-size="10" fill="#6C757D">OA-009</text></g>
<g id="node-OA-010"><rect x="1200" y="90" width="150" height="80" rx="8" ry="8" fill="#FFD966" stroke="#000000" stroke-width="2" />
<path d="M 6,6 L 14,6 L 14,14 L 6,14 Z" transform="translate(1210, 100) scale(1)" fill="none" stroke="#000000" stroke-width="1.5" stroke-linecap="round" stroke-linejoin="round"></path>
<text x="1275" y="114" text-anchor="middle" dominant-baseline="middle" font-family="Arial, sans-serif" font-size="12" fill="#000000">Observe Driver</text>
<text x="1275" y="130" text-anchor="middle" dominant-baseline="middle" font-family="Arial, sans-serif" font-size="12" fill="#000000">Action</text>
<text x="1345" y="102" text-anchor="end" font-family="Arial, sans-serif" font-size="10" fill="#6C757D">OA-010</text></g>
<text x="20" y="30" font-family="Arial, sans-serif" font-size="18" font-weight="bold" fill="#212529">Adaptive Cruise Control - Rich Operational View</text>
</svg>