<?xml version="1.0" encoding="UTF-8"?>
<svg width="1240" height="380" viewBox="0 0 1240 380" xmlns="http://www.w3.org/2000/svg" xmlns:xlink="http://www.w3.org/1999/xlink">
<defs>
<marker id="arrow-black" viewBox="0 0 10 10" refX="9" refY="5" markerWidth="10" markerHeight="10" orient="auto-start-reverse"><path d="M 0 0 L 10 5 L 0 10 z" fill="#000000"></path></marker>
<marker id="arrow-blue" viewBox="0 0 10 10" refX="9" refY="5" markerWidth="10" markerHeight="10" orient="auto-start-reverse"><path d="M 0 0 L 10 5 L 0 10 z" fill="#2E75B6"></path></marker>
</defs>

<rect x="0" y="0" width="1240" height="380" rx="0" ry="0" fill="#FFFFFF" stroke="none" />
<rect x="0" y="60" width="1240" height="210" rx="5" ry="5" fill="#F8F9FA" stroke="#CED4DA" stroke-width="2" />
<rect x="0" y="60" width="240" height="210" rx="5" ry="5" fill="#E9ECEF" stroke="#CED4DA" stroke-width="2" />
<g ><circle cx="100" cy="92" r="12" fill="none" stroke="#2E75B6" stroke-width="2" />
<line x1="100" y1="104" x2="100" y2="134" stroke="#2E75B6" stroke-width="2" />
<line x1="82" y1="113" x2="118" y2="113" stroke="#2E75B6" stroke-width="2" />
<line x1="100" y1="134" x2="85" y2="149" stroke="#2E75B6" stroke-width="2" />
<line x1="100" y1="134" x2="115" y2="149" stroke="#2E75B6" stroke-width="2" /></g>
<g ><text x="100" y="160" text-anchor="middle" font-family="Arial, sans-serif" font-size="12" font-weight="bold" fill="#212529">Driver</text></g>
<rect x="0" y="310" width="1240" height="380" rx="5" ry="5" fill="#F8F9FA" stroke="#CED4DA" stroke-width="2" />
<rect x="0" y="310" width="240" height="380" rx="5" ry="5" fill="#E9ECEF" stroke="#CED4DA" stroke-width="2" />
<g ><circle cx="100" cy="342" r="12" fill="none" stroke="#2E75B6" stroke-width="2" />
<line x1="100" y1="354" x2="100" y2="384" stroke="#2E75B6" stroke-width="2" />
<line x1="82" y1="363" x2="118" y2="363" stroke="#2E75B6" stroke-width="2" />
<line x1="100" y1="384" x2="85" y2="399" stroke="#2E75B6" stroke-width="2" />
<line x1="100" y1="384" x2="115" y2="399" stroke="#2E75B6" stroke-width="2" /></g>
<g ><text x="100" y="410" text-anchor="middle" font-family="Arial, sans-serif" font-size="12" font-weight="bold" fill="#212529">Vehicle System</text></g>
<g id="edge-OA-01-OA-03"><path d="M 470 110 L 600 110" fill="none" stroke="#000000" stroke-width="2" marker-end="url(#arrow-black)"></path>
<rect x="476.2" y="85" width="117.6" height="20" rx="3" ry="3" fill="#FFFFFF" stroke="#CED4DA" stroke-width="1" />
<text x="535" y="95" text-anchor="middle" dominant-baseline="middle" font-family="Arial, sans-serif" font-size="11" fill="#495057">Environment Data</text></g>
<g id="edge-OA-03-OA-04"><path d="M 780 110 L 840 110 Q 850 110, 850 100 L 850 80 Q 850 70, 860 70 L 920 70" fill="none" stroke="#000000" stroke-width="2" marker-end="url(#arrow-black)"></path>
<rect x="794.5" y="65" width="111" height="20" rx="3" ry="3" fill="#FFFFFF" stroke="#CED4DA" stroke-width="1" />
<text x="850" y="75" text-anchor="middle" dominant-baseline="middle" font-family="Arial, sans-serif" font-size="11" fill="#495057">Collision Alert</text></g>
<g id="edge-OA-04-OA-02"><path d="M 1100 70 L 1160 70 Q 1170 70, 1170 75 L 1170 75 Q 1170 80, 1180 80 L 1240 80" fill="none" stroke="#000000" stroke-width="2" marker-end="url(#arrow-black)"></path>
<rect x="1114.5" y="50" width="111" height="20" rx="3" ry="3" fill="#FFFFFF" stroke="#CED4DA" stroke-width="1" />
<text x="1170" y="60" text-anchor="middle" dominant-baseline="middle" font-family="Arial, sans-serif" font-size="11" fill="#495057">Driver Response</text></g>
<g id="edge-OA-03-OA-05"><path d="M 780 110 L 835 110 Q 845 110, 845 120 L 845 260 Q 845 270, 855 270 L 910 270" fill="none" stroke="#000000" stroke-width="2" marker-end="url(#arrow-black)"></path>
<rect x="799" y="165" width="92" height="20" rx="3" ry="3" fill="#FFFFFF" stroke="#CED4DA" stroke-width="1" />
<text x="845" y="175" text-anchor="middle" dominant-baseline="middle" font-family="Arial, sans-serif" font-size="11" fill="#495057">Auto Brake</text></g>
<g id="node-OA-01"><rect x="290" y="60" width="180" height="100" rx="8" ry="8" fill="#FFD966" stroke="#000000" stroke-width="2" />
<text x="380" y="102" text-anchor="middle" dominant-baseline="middle" font-family="Arial, sans-serif" font-size="12" fill="#000000">Monitor Environment</text>
<text x="465" y="72" text-anchor="end" font-family="Arial, sans-serif" font-size="10" fill="#6C757D">OA-01</text></g>
<g id="node-OA-02"><rect x="1240" y="30" width="180" height="100" rx="8" ry="8" fill="#FFD966" stroke="#000000" stroke-width="2" />
<text x="1330" y="72" text-anchor="middle" dominant-baseline="middle" font-family="Arial, sans-serif" font-size="12" fill="#000000">Control Vehicle</text>
<text x="1415" y="42" text-anchor="end" font-family="Arial, sans-serif" font-size="10" fill="#6C757D">OA-02</text></g>
<g id="node-OA-03"><rect x="600" y="60" width="180" height="100" rx="8" ry="8" fill="#B4D7A8" stroke="#000000" stroke-width="2" />
<text x="690" y="102" text-anchor="middle" dominant-baseline="middle" font-family="Arial, sans-serif" font-size="12" fill="#000000">Detect Collision Risk</text>
<text x="775" y="72" text-anchor="end" font-family="Arial, sans-serif" font-size="10" fill="#6C757D">OA-03</text></g>
<g id="node-OA-04"><rect x="920" y="20" width="180" height="100" rx="8" ry="8" fill="#B4D7A8" stroke="#000000" stroke-width="2" />
<text x="1010" y="62" text-anchor="middle" dominant-baseline="middle" font-family="Arial, sans-serif" font-size="12" fill="#000000">Alert Driver</text>
<text x="1095" y="32" text-anchor="end" font-family="Arial, sans-serif" font-size="10" fill="#6C757D">OA-04</text></g>
<g id="node-OA-05"><rect x="910" y="220" width="180" height="100" rx="8" ry="8" fill="#B4D7A8" stroke="#000000" stroke-width="2" />
<text x="1000" y="262" text-anchor="middle" dominant-baseline="middle" font-family="Arial, sans-serif" font-size="12" fill="#000000">Apply Emergency Brake</text>
<text x="1085" y="232" text-anchor="end" font-family="Arial, sans-serif" font-size="10" fill="#6C757D">OA-05</text></g>
<text x="20" y="30" font-family="Arial, sans-serif" font-size="18" font-weight="bold" fill="#212529">Emergency Braking Operational Context</text>
<g id="optimization-badge"><rect x="20" y="50" width="300" height="70" rx="5" ry="5" fill="#F0F8FF" stroke="#4472C4" stroke-width="2" />
<text x="30" y="70" font-family="Arial, sans-serif" font-size="14" font-weight="bold" fill="#4472C4">Hybrid ELK+Dagre+D3 Engine</text>
<text x="30" y="95" font-family="Arial, sans-serif" font-size="11" fill="#6C757D">ELK: 100 | Dagre: 100 | D3: 100 | 90ms</text></g>
</svg>