<?xml version="1.0" encoding="UTF-8"?>
<svg width="3084" height="600" viewBox="0 0 3084 600" xmlns="http://www.w3.org/2000/svg" xmlns:xlink="http://www.w3.org/1999/xlink">
<defs>
<marker id="arrow-component" viewBox="0 0 10 10" refX="9" refY="5" markerWidth="10" markerHeight="10" orient="auto-start-reverse"><path d="M 0 0 L 10 5 L 0 10 z" fill="#6495ED"></path></marker>
<marker id="arrow-black" viewBox="0 0 10 10" refX="9" refY="5" markerWidth="10" markerHeight="10" orient="auto-start-reverse"><path d="M 0 0 L 10 5 L 0 10 z" fill="#000000"></path></marker>
<filter id="drop-shadow" x="-50%" y="-50%" width="200%" height="200%"><feGaussianBlur in="SourceAlpha" stdDeviation="4"></feGaussianBlur>
<feOffset dx="2" dy="2" result="offsetblur"></feOffset>
<feComponentTransfer ><feFuncA type="linear" slope="0.15"></feFuncA></feComponentTransfer>
<feMerge ><feMergeNode ></feMergeNode>
<feMergeNode in="SourceGraphic"></feMergeNode></feMerge></filter>
<marker id="arrow-event" viewBox="0 0 10 10" refX="9" refY="5" markerWidth="6" markerHeight="6" orient="auto-start-reverse"><path d="M 0 0 L 10 5 L 0 10 z" fill="#FF6B6B"></path></marker>
<marker id="arrow-flow" viewBox="0 0 10 10" refX="9" refY="5" markerWidth="6" markerHeight="6" orient="auto-start-reverse"><path d="M 0 0 L 10 5 L 0 10 z" fill="#4ECDC4"></path></marker>
<marker id="arrow-operation" viewBox="0 0 10 10" refX="9" refY="5" markerWidth="6" markerHeight="6" orient="auto-start-reverse"><path d="M 0 0 L 10 5 L 0 10 z" fill="#95E1D3"></path></marker>
<marker id="arrow-data" viewBox="0 0 10 10" refX="9" refY="5" markerWidth="6" markerHeight="6" orient="auto-start-reverse"><path d="M 0 0 L 10 5 L 0 10 z" fill="#5B9BD5"></path></marker>
<marker id="arrow-shared_data" viewBox="0 0 10 10" refX="9" refY="5" markerWidth="6" markerHeight="6" orient="auto-start-reverse"><path d="M 0 0 L 10 5 L 0 10 z" fill="#9B59B6"></path></marker>
<marker id="arrow-unset" viewBox="0 0 10 10" refX="9" refY="5" markerWidth="6" markerHeight="6" orient="auto-start-reverse"><path d="M 0 0 L 10 5 L 0 10 z" fill="#95A5A6"></path></marker>
</defs>

<rect x="0" y="0" width="3084" height="600" fill="#FFFFFF" stroke="none" />
<g id="layer-edges" class="edges-layer"><g id="ce-0"><path d="M 200 440 L 454 440 L 454 280 L 594 280" fill="none" stroke="#5B9BD5" stroke-width="2" marker-end="url(#arrow-data)"></path>
<rect x="404.8" y="407" width="98.39999999999999" height="20" fill="#FFFFFF" stroke="#5B9BD5" stroke-width="1" rx="3" ry="3" />
<text x="454" y="417" text-anchor="middle" dominant-baseline="middle" font-family="Arial, sans-serif" font-size="9" fill="#5B9BD5" font-weight="normal" font-style="normal">📦 Radar Objects</text></g>
<g id="ce-1"><path d="M 200 260 L 594 260" fill="none" stroke="#5B9BD5" stroke-width="2" marker-end="url(#arrow-data)"></path>
<rect x="345.1" y="250" width="103.8" height="20" fill="#FFFFFF" stroke="#5B9BD5" stroke-width="1" rx="3" ry="3" />
<text x="397" y="260" text-anchor="middle" dominant-baseline="middle" font-family="Arial, sans-serif" font-size="9" fill="#5B9BD5" font-weight="normal" font-style="normal">📦 Vision Objects</text></g>
<g id="ce-2"><path d="M 200 80 L 454 80 L 454 240 L 594 240" fill="none" stroke="#5B9BD5" stroke-width="2" marker-end="url(#arrow-data)"></path>
<rect x="408" y="93" width="92" height="20" fill="#FFFFFF" stroke="#5B9BD5" stroke-width="1" rx="3" ry="3" />
<text x="454" y="103" text-anchor="middle" dominant-baseline="middle" font-family="Arial, sans-serif" font-size="9" fill="#5B9BD5" font-weight="normal" font-style="normal">📦 Point Cloud</text></g>
<g id="ce-3"><path d="M 754 260 L 1142 260" fill="none" stroke="#5B9BD5" stroke-width="2" marker-end="url(#arrow-data)"></path>
<rect x="898.8" y="250" width="98.39999999999999" height="20" fill="#FFFFFF" stroke="#5B9BD5" stroke-width="1" rx="3" ry="3" />
<text x="948" y="260" text-anchor="middle" dominant-baseline="middle" font-family="Arial, sans-serif" font-size="9" fill="#5B9BD5" font-weight="normal" font-style="normal">📦 Fused Objects</text></g>
<g id="ce-4"><path d="M 1302 260 L 1702 260" fill="none" stroke="#5B9BD5" stroke-width="2" marker-end="url(#arrow-data)"></path>
<rect x="1447.4" y="250" width="109.19999999999999" height="20" fill="#FFFFFF" stroke="#5B9BD5" stroke-width="1" rx="3" ry="3" />
<text x="1502" y="260" text-anchor="middle" dominant-baseline="middle" font-family="Arial, sans-serif" font-size="9" fill="#5B9BD5" font-weight="normal" font-style="normal">📦 Tracked Objects</text></g>
<g id="ce-5"><path d="M 1862 273 L 2256 273" fill="none" stroke="#5B9BD5" stroke-width="2" marker-end="url(#arrow-data)"></path>
<rect x="2013" y="263" width="92" height="20" fill="#FFFFFF" stroke="#5B9BD5" stroke-width="1" rx="3" ry="3" />
<text x="2059" y="273" text-anchor="middle" dominant-baseline="middle" font-family="Arial, sans-serif" font-size="9" fill="#5B9BD5" font-weight="normal" font-style="normal">📦 Risk Level</text></g>
<g id="ce-6"><path d="M 2416 273 L 2804 273" fill="none" stroke="#5B9BD5" stroke-width="2" marker-end="url(#arrow-data)"></path>
<rect x="2560.8" y="263" width="98.39999999999999" height="20" fill="#FFFFFF" stroke="#5B9BD5" stroke-width="1" rx="3" ry="3" />
<text x="2610" y="273" text-anchor="middle" dominant-baseline="middle" font-family="Arial, sans-serif" font-size="9" fill="#5B9BD5" font-weight="normal" font-style="normal">📦 Brake Command</text></g>
<g id="ce-7"><path d="M 1862 247 L 1872 247 L 1872 93 L 2256 93" fill="none" stroke="#5B9BD5" stroke-width="2" marker-end="url(#arrow-data)"></path>
<rect x="1930.1" y="83" width="103.8" height="20" fill="#FFFFFF" stroke="#5B9BD5" stroke-width="1" rx="3" ry="3" />
<text x="1982" y="93" text-anchor="middle" dominant-baseline="middle" font-family="Arial, sans-serif" font-size="9" fill="#5B9BD5" font-weight="normal" font-style="normal">📦 Warning Signal</text></g></g>
<g id="layer-components" class="components-layer"><g id="component-LA-001"><rect x="594" y="220" width="160" height="80" rx="8" ry="8" fill="#70AD47" class="component-node" stroke="#000000" stroke-width="2" filter="url(#drop-shadow)" />
<text x="674" y="240" text-anchor="middle" font-family="Helvetica Neue, Arial, sans-serif" font-size="12" font-weight="bold" fill="#FFFFFF" class="component-label">Sensor Fusion</text>
<text x="744" y="234" text-anchor="end" font-family="Arial, sans-serif" font-size="10" fill="#E8F4F8">LA-001</text>
<circle cx="612" cy="238" r="8" fill="none" stroke="#FFFFFF" stroke-width="1.5" />
<line x1="622" y1="238" x2="625" y2="238" stroke="#FFFFFF" stroke-width="1.5" />
<line x1="619.0710678118655" y1="245.07106781186548" x2="621.1923881554251" y2="247.1923881554251" stroke="#FFFFFF" stroke-width="1.5" />
<line x1="612" y1="248" x2="612" y2="251" stroke="#FFFFFF" stroke-width="1.5" />
<line x1="604.9289321881346" y1="245.07106781186548" x2="602.8076118445749" y2="247.1923881554251" stroke="#FFFFFF" stroke-width="1.5" />
<line x1="602" y1="238" x2="599" y2="238" stroke="#FFFFFF" stroke-width="1.5" />
<line x1="604.9289321881345" y1="230.92893218813452" x2="602.8076118445749" y2="228.8076118445749" stroke="#FFFFFF" stroke-width="1.5" />
<line x1="612" y1="228" x2="612" y2="225" stroke="#FFFFFF" stroke-width="1.5" />
<line x1="619.0710678118654" y1="230.92893218813452" x2="621.1923881554251" y2="228.8076118445749" stroke="#FFFFFF" stroke-width="1.5" />
<text x="674" y="288" text-anchor="middle" font-family="Arial, sans-serif" font-size="9" font-style="italic" fill="#E8F4F8"><<sensor>></text></g>
<g id="component-LA-002"><rect x="40" y="400" width="160" height="80" rx="8" ry="8" fill="#70AD47" class="component-node" stroke="#000000" stroke-width="2" filter="url(#drop-shadow)" />
<text x="120" y="420" text-anchor="middle" font-family="Helvetica Neue, Arial, sans-serif" font-size="12" font-weight="bold" fill="#FFFFFF" class="component-label">Radar Sensor</text>
<text x="190" y="414" text-anchor="end" font-family="Arial, sans-serif" font-size="10" fill="#E8F4F8">LA-002</text>
<circle cx="58" cy="418" r="8" fill="none" stroke="#FFFFFF" stroke-width="1.5" />
<line x1="68" y1="418" x2="71" y2="418" stroke="#FFFFFF" stroke-width="1.5" />
<line x1="65.07106781186548" y1="425.0710678118655" x2="67.19238815542512" y2="427.19238815542514" stroke="#FFFFFF" stroke-width="1.5" />
<line x1="58" y1="428" x2="58" y2="431" stroke="#FFFFFF" stroke-width="1.5" />
<line x1="50.928932188134524" y1="425.0710678118655" x2="48.80761184457488" y2="427.19238815542514" stroke="#FFFFFF" stroke-width="1.5" />
<line x1="48" y1="418" x2="45" y2="418" stroke="#FFFFFF" stroke-width="1.5" />
<line x1="50.928932188134524" y1="410.9289321881345" x2="48.80761184457488" y2="408.80761184457486" stroke="#FFFFFF" stroke-width="1.5" />
<line x1="58" y1="408" x2="58" y2="405" stroke="#FFFFFF" stroke-width="1.5" />
<line x1="65.07106781186548" y1="410.9289321881345" x2="67.19238815542512" y2="408.80761184457486" stroke="#FFFFFF" stroke-width="1.5" />
<text x="120" y="468" text-anchor="middle" font-family="Arial, sans-serif" font-size="9" font-style="italic" fill="#E8F4F8"><<sensor>></text></g>
<g id="component-LA-003"><rect x="40" y="220" width="160" height="80" rx="8" ry="8" fill="#70AD47" class="component-node" stroke="#000000" stroke-width="2" filter="url(#drop-shadow)" />
<text x="120" y="240" text-anchor="middle" font-family="Helvetica Neue, Arial, sans-serif" font-size="12" font-weight="bold" fill="#FFFFFF" class="component-label">Camera Sensor</text>
<text x="190" y="234" text-anchor="end" font-family="Arial, sans-serif" font-size="10" fill="#E8F4F8">LA-003</text>
<circle cx="58" cy="238" r="8" fill="none" stroke="#FFFFFF" stroke-width="1.5" />
<line x1="68" y1="238" x2="71" y2="238" stroke="#FFFFFF" stroke-width="1.5" />
<line x1="65.07106781186548" y1="245.07106781186548" x2="67.19238815542512" y2="247.1923881554251" stroke="#FFFFFF" stroke-width="1.5" />
<line x1="58" y1="248" x2="58" y2="251" stroke="#FFFFFF" stroke-width="1.5" />
<line x1="50.928932188134524" y1="245.07106781186548" x2="48.80761184457488" y2="247.1923881554251" stroke="#FFFFFF" stroke-width="1.5" />
<line x1="48" y1="238" x2="45" y2="238" stroke="#FFFFFF" stroke-width="1.5" />
<line x1="50.928932188134524" y1="230.92893218813452" x2="48.80761184457488" y2="228.8076118445749" stroke="#FFFFFF" stroke-width="1.5" />
<line x1="58" y1="228" x2="58" y2="225" stroke="#FFFFFF" stroke-width="1.5" />
<line x1="65.07106781186548" y1="230.92893218813452" x2="67.19238815542512" y2="228.8076118445749" stroke="#FFFFFF" stroke-width="1.5" />
<text x="120" y="288" text-anchor="middle" font-family="Arial, sans-serif" font-size="9" font-style="italic" fill="#E8F4F8"><<sensor>></text></g>
<g id="component-LA-004"><rect x="40" y="40" width="160" height="80" rx="8" ry="8" fill="#70AD47" class="component-node" stroke="#000000" stroke-width="2" filter="url(#drop-shadow)" />
<text x="120" y="60" text-anchor="middle" font-family="Helvetica Neue, Arial, sans-serif" font-size="12" font-weight="bold" fill="#FFFFFF" class="component-label">Lidar Sensor</text>
<text x="190" y="54" text-anchor="end" font-family="Arial, sans-serif" font-size="10" fill="#E8F4F8">LA-004</text>
<circle cx="58" cy="58" r="8" fill="none" stroke="#FFFFFF" stroke-width="1.5" />
<line x1="68" y1="58" x2="71" y2="58" stroke="#FFFFFF" stroke-width="1.5" />
<line x1="65.07106781186548" y1="65.07106781186548" x2="67.19238815542512" y2="67.19238815542512" stroke="#FFFFFF" stroke-width="1.5" />
<line x1="58" y1="68" x2="58" y2="71" stroke="#FFFFFF" stroke-width="1.5" />
<line x1="50.928932188134524" y1="65.07106781186548" x2="48.80761184457488" y2="67.19238815542512" stroke="#FFFFFF" stroke-width="1.5" />
<line x1="48" y1="58" x2="45" y2="58" stroke="#FFFFFF" stroke-width="1.5" />
<line x1="50.928932188134524" y1="50.928932188134524" x2="48.80761184457488" y2="48.80761184457488" stroke="#FFFFFF" stroke-width="1.5" />
<line x1="58" y1="48" x2="58" y2="45" stroke="#FFFFFF" stroke-width="1.5" />
<line x1="65.07106781186548" y1="50.928932188134524" x2="67.19238815542512" y2="48.80761184457488" stroke="#FFFFFF" stroke-width="1.5" />
<text x="120" y="108" text-anchor="middle" font-family="Arial, sans-serif" font-size="9" font-style="italic" fill="#E8F4F8"><<sensor>></text></g>
<g id="component-LA-005"><rect x="1142" y="220" width="160" height="80" rx="8" ry="8" fill="#6495ED" class="component-node" stroke="#000000" stroke-width="2" filter="url(#drop-shadow)" />
<text x="1222" y="240" text-anchor="middle" font-family="Helvetica Neue, Arial, sans-serif" font-size="12" font-weight="bold" fill="#FFFFFF" class="component-label">Object Tracking</text>
<text x="1292" y="234" text-anchor="end" font-family="Arial, sans-serif" font-size="10" fill="#E8F4F8">LA-005</text></g>
<g id="component-LA-006"><rect x="1702" y="220" width="160" height="80" rx="8" ry="8" fill="#6495ED" class="component-node" stroke="#000000" stroke-width="2" filter="url(#drop-shadow)" />
<text x="1782" y="240" text-anchor="middle" font-family="Helvetica Neue, Arial, sans-serif" font-size="12" font-weight="bold" fill="#FFFFFF" class="component-label">Risk Assessment</text>
<text x="1852" y="234" text-anchor="end" font-family="Arial, sans-serif" font-size="10" fill="#E8F4F8">LA-006</text></g>
<g id="component-LA-007"><rect x="2256" y="233" width="160" height="80" rx="8" ry="8" fill="#6495ED" class="component-node" stroke="#000000" stroke-width="2" filter="url(#drop-shadow)" />
<text x="2336" y="253" text-anchor="middle" font-family="Helvetica Neue, Arial, sans-serif" font-size="12" font-weight="bold" fill="#FFFFFF" class="component-label">Decision Logic</text>
<text x="2406" y="247" text-anchor="end" font-family="Arial, sans-serif" font-size="10" fill="#E8F4F8">LA-007</text></g>
<g id="component-LA-008"><rect x="2804" y="233" width="160" height="80" rx="8" ry="8" fill="#ED7D31" class="component-node" stroke="#000000" stroke-width="2" filter="url(#drop-shadow)" />
<text x="2884" y="253" text-anchor="middle" font-family="Helvetica Neue, Arial, sans-serif" font-size="12" font-weight="bold" fill="#FFFFFF" class="component-label">Brake Actuator</text>
<text x="2954" y="247" text-anchor="end" font-family="Arial, sans-serif" font-size="10" fill="#E8F4F8">LA-008</text>
<line x1="2828" y1="251" x2="2831" y2="251" stroke="#FFFFFF" stroke-width="2" />
<line x1="2826.242640687119" y1="255.2426406871193" x2="2828.363961030679" y2="257.3639610306789" stroke="#FFFFFF" stroke-width="2" />
<line x1="2822" y1="257" x2="2822" y2="260" stroke="#FFFFFF" stroke-width="2" />
<line x1="2817.757359312881" y1="255.2426406871193" x2="2815.636038969321" y2="257.3639610306789" stroke="#FFFFFF" stroke-width="2" />
<line x1="2816" y1="251" x2="2813" y2="251" stroke="#FFFFFF" stroke-width="2" />
<line x1="2817.757359312881" y1="246.7573593128807" x2="2815.636038969321" y2="244.63603896932108" stroke="#FFFFFF" stroke-width="2" />
<line x1="2822" y1="245" x2="2822" y2="242" stroke="#FFFFFF" stroke-width="2" />
<line x1="2826.242640687119" y1="246.7573593128807" x2="2828.363961030679" y2="244.63603896932108" stroke="#FFFFFF" stroke-width="2" />
<circle cx="2822" cy="251" r="5.333333333333333" fill="none" stroke="#FFFFFF" stroke-width="1.5" />
<text x="2884" y="301" text-anchor="middle" font-family="Arial, sans-serif" font-size="9" font-style="italic" fill="#E8F4F8"><<actuator>></text></g>
<g id="component-LA-009"><rect x="2256" y="53" width="160" height="80" rx="8" ry="8" fill="#6495ED" class="component-node" stroke="#000000" stroke-width="2" filter="url(#drop-shadow)" />
<text x="2336" y="73" text-anchor="middle" font-family="Helvetica Neue, Arial, sans-serif" font-size="12" font-weight="bold" fill="#FFFFFF" class="component-label">HMI Display</text>
<text x="2406" y="67" text-anchor="end" font-family="Arial, sans-serif" font-size="10" fill="#E8F4F8">LA-009</text></g></g>
<g id="layer-labels" class="labels-layer"><text x="20" y="30" font-family="Helvetica Neue, Arial, sans-serif" font-size="18" font-weight="bold" fill="#212529">Emergency Braking Logical Architecture</text>
<text x="20" y="590" font-family="Helvetica Neue, Arial, sans-serif" font-size="11" fill="#666">Components: 9 | Exchanges: 8</text></g>
</svg>