<?xml version="1.0" encoding="UTF-8"?>
<svg width="260" height="540" viewBox="0 0 260 540" xmlns="http://www.w3.org/2000/svg" xmlns:xlink="http://www.w3.org/1999/xlink">
<defs>
<marker id="arrow-component" viewBox="0 0 10 10" refX="9" refY="5" markerWidth="10" markerHeight="10" orient="auto-start-reverse"><path d="M 0 0 L 10 5 L 0 10 z" fill="#6495ED"></path></marker>
<marker id="arrow-black" viewBox="0 0 10 10" refX="9" refY="5" markerWidth="10" markerHeight="10" orient="auto-start-reverse"><path d="M 0 0 L 10 5 L 0 10 z" fill="#000000"></path></marker>
<filter id="drop-shadow" x="-50%" y="-50%" width="200%" height="200%"><feGaussianBlur in="SourceAlpha" stdDeviation="4"></feGaussianBlur>
<feOffset dx="2" dy="2" result="offsetblur"></feOffset>
<feComponentTransfer ><feFuncA type="linear" slope="0.15"></feFuncA></feComponentTransfer>
<feMerge ><feMergeNode ></feMergeNode>
<feMergeNode in="SourceGraphic"></feMergeNode></feMerge></filter>
<marker id="arrow-event" viewBox="0 0 10 10" refX="9" refY="5" markerWidth="6" markerHeight="6" orient="auto-start-reverse"><path d="M 0 0 L 10 5 L 0 10 z" fill="#FF6B6B"></path></marker>
<marker id="arrow-flow" viewBox="0 0 10 10" refX="9" refY="5" markerWidth="6" markerHeight="6" orient="auto-start-reverse"><path d="M 0 0 L 10 5 L 0 10 z" fill="#4ECDC4"></path></marker>
<marker id="arrow-operation" viewBox="0 0 10 10" refX="9" refY="5" markerWidth="6" markerHeight="6" orient="auto-start-reverse"><path d="M 0 0 L 10 5 L 0 10 z" fill="#95E1D3"></path></marker>
<marker id="arrow-data" viewBox="0 0 10 10" refX="9" refY="5" markerWidth="6" markerHeight="6" orient="auto-start-reverse"><path d="M 0 0 L 10 5 L 0 10 z" fill="#808080"></path></marker>
<marker id="arrow-shared_data" viewBox="0 0 10 10" refX="9" refY="5" markerWidth="6" markerHeight="6" orient="auto-start-reverse"><path d="M 0 0 L 10 5 L 0 10 z" fill="#9B59B6"></path></marker>
<marker id="arrow-unset" viewBox="0 0 10 10" refX="9" refY="5" markerWidth="6" markerHeight="6" orient="auto-start-reverse"><path d="M 0 0 L 10 5 L 0 10 z" fill="#95A5A6"></path></marker>
</defs>

<rect x="0" y="0" width="260" height="540" fill="#FFFFFF" stroke="none" />
<g id="layer-edges" class="edges-layer"></g>
<g id="layer-components" class="components-layer"><g id="component-LC-001"><rect x="40" y="220" width="160" height="80" rx="8" ry="8" fill="#70AD47" class="component-node" stroke="#8B0000" stroke-width="6" filter="url(#drop-shadow)" />
<text x="120" y="240" text-anchor="middle" font-family="Helvetica Neue, Arial, sans-serif" font-size="12" font-weight="bold" fill="#FFFFFF" class="component-label">Radar</text>
<text x="190" y="234" text-anchor="end" font-family="Arial, sans-serif" font-size="10" fill="#E8F4F8">LC-001</text>
<circle cx="58" cy="238" r="8" fill="none" stroke="#FFFFFF" stroke-width="1.5" />
<line x1="68" y1="238" x2="71" y2="238" stroke="#FFFFFF" stroke-width="1.5" />
<line x1="65.07106781186548" y1="245.07106781186548" x2="67.19238815542512" y2="247.1923881554251" stroke="#FFFFFF" stroke-width="1.5" />
<line x1="58" y1="248" x2="58" y2="251" stroke="#FFFFFF" stroke-width="1.5" />
<line x1="50.928932188134524" y1="245.07106781186548" x2="48.80761184457488" y2="247.1923881554251" stroke="#FFFFFF" stroke-width="1.5" />
<line x1="48" y1="238" x2="45" y2="238" stroke="#FFFFFF" stroke-width="1.5" />
<line x1="50.928932188134524" y1="230.92893218813452" x2="48.80761184457488" y2="228.8076118445749" stroke="#FFFFFF" stroke-width="1.5" />
<line x1="58" y1="228" x2="58" y2="225" stroke="#FFFFFF" stroke-width="1.5" />
<line x1="65.07106781186548" y1="230.92893218813452" x2="67.19238815542512" y2="228.8076118445749" stroke="#FFFFFF" stroke-width="1.5" />
<text x="120" y="288" text-anchor="middle" font-family="Arial, sans-serif" font-size="9" font-style="italic" fill="#E8F4F8"><<sensor>></text>
<line x1="200" y1="260" x2="220" y2="260" stroke="#000000" stroke-width="2" />
<circle cx="226" cy="260" r="6" fill="#FFFFFF" stroke="#000000" stroke-width="2" />
<text x="240" y="260" dominant-baseline="middle" font-family="Arial, sans-serif" font-size="9" fill="#000000">ObstacleData</text></g>
<g id="component-LC-002"><rect x="40" y="400" width="160" height="80" rx="8" ry="8" fill="#6495ED" class="component-node" stroke="#8B0000" stroke-width="6" filter="url(#drop-shadow)" />
<text x="120" y="420" text-anchor="middle" font-family="Helvetica Neue, Arial, sans-serif" font-size="12" font-weight="bold" fill="#FFFFFF" class="component-label">BrakingController</text>
<text x="190" y="414" text-anchor="end" font-family="Arial, sans-serif" font-size="10" fill="#E8F4F8">LC-002</text>
<rect x="50" y="410" width="16" height="16" fill="none" stroke="#FFFFFF" stroke-width="1.5" rx="2" ry="2" />
<line x1="47" y1="413" x2="50" y2="413" stroke="#FFFFFF" stroke-width="1" />
<line x1="66" y1="413" x2="69" y2="413" stroke="#FFFFFF" stroke-width="1" />
<line x1="47" y1="418" x2="50" y2="418" stroke="#FFFFFF" stroke-width="1" />
<line x1="66" y1="418" x2="69" y2="418" stroke="#FFFFFF" stroke-width="1" />
<line x1="47" y1="423" x2="50" y2="423" stroke="#FFFFFF" stroke-width="1" />
<line x1="66" y1="423" x2="69" y2="423" stroke="#FFFFFF" stroke-width="1" />
<text x="120" y="468" text-anchor="middle" font-family="Arial, sans-serif" font-size="9" font-style="italic" fill="#E8F4F8"><<controller>></text>
<line x1="200" y1="440" x2="220" y2="440" stroke="#000000" stroke-width="2" />
<circle cx="226" cy="440" r="6" fill="#FFFFFF" stroke="#000000" stroke-width="2" />
<text x="240" y="440" dominant-baseline="middle" font-family="Arial, sans-serif" font-size="9" fill="#000000">BrakeCommand</text>
<line x1="20" y1="440" x2="40" y2="440" stroke="#000000" stroke-width="2" />
<path d="M 20 434 A 6 6 0 0 0 20 446" fill="none" stroke="#000000" stroke-width="2"></path>
<text x="12" y="440" text-anchor="end" dominant-baseline="middle" font-family="Arial, sans-serif" font-size="9" fill="#000000">SensorInput</text></g>
<g id="component-LC-003"><rect x="40" y="40" width="160" height="80" rx="8" ry="8" fill="#ED7D31" class="component-node" stroke="#8B0000" stroke-width="6" filter="url(#drop-shadow)" />
<text x="120" y="60" text-anchor="middle" font-family="Helvetica Neue, Arial, sans-serif" font-size="12" font-weight="bold" fill="#FFFFFF" class="component-label">BrakeActuator</text>
<text x="190" y="54" text-anchor="end" font-family="Arial, sans-serif" font-size="10" fill="#E8F4F8">LC-003</text>
<line x1="64" y1="58" x2="67" y2="58" stroke="#FFFFFF" stroke-width="2" />
<line x1="62.242640687119284" y1="62.242640687119284" x2="64.36396103067892" y2="64.36396103067892" stroke="#FFFFFF" stroke-width="2" />
<line x1="58" y1="64" x2="58" y2="67" stroke="#FFFFFF" stroke-width="2" />
<line x1="53.757359312880716" y1="62.242640687119284" x2="51.63603896932107" y2="64.36396103067892" stroke="#FFFFFF" stroke-width="2" />
<line x1="52" y1="58" x2="49" y2="58" stroke="#FFFFFF" stroke-width="2" />
<line x1="53.757359312880716" y1="53.757359312880716" x2="51.63603896932107" y2="51.63603896932107" stroke="#FFFFFF" stroke-width="2" />
<line x1="58" y1="52" x2="58" y2="49" stroke="#FFFFFF" stroke-width="2" />
<line x1="62.242640687119284" y1="53.757359312880716" x2="64.36396103067892" y2="51.63603896932107" stroke="#FFFFFF" stroke-width="2" />
<circle cx="58" cy="58" r="5.333333333333333" fill="none" stroke="#FFFFFF" stroke-width="1.5" />
<text x="120" y="108" text-anchor="middle" font-family="Arial, sans-serif" font-size="9" font-style="italic" fill="#E8F4F8"><<actuator>></text>
<line x1="20" y1="80" x2="40" y2="80" stroke="#000000" stroke-width="2" />
<path d="M 20 74 A 6 6 0 0 0 20 86" fill="none" stroke="#000000" stroke-width="2"></path>
<text x="12" y="80" text-anchor="end" dominant-baseline="middle" font-family="Arial, sans-serif" font-size="9" fill="#000000">CommandInput</text></g></g>
<g id="layer-labels" class="labels-layer"><text x="20" y="30" font-family="Helvetica Neue, Arial, sans-serif" font-size="18" font-weight="bold" fill="#212529">Emergency Braking LA</text>
<text x="20" y="530" font-family="Helvetica Neue, Arial, sans-serif" font-size="11" fill="#666">Components: 3 | Exchanges: 0</text></g>
</svg>