<?xml version="1.0" encoding="UTF-8"?>
<svg width="320" height="600" viewBox="0 0 320 600" xmlns="http://www.w3.org/2000/svg" xmlns:xlink="http://www.w3.org/1999/xlink">
<defs>
<marker id="arrow-component" viewBox="0 0 10 10" refX="9" refY="5" markerWidth="10" markerHeight="10" orient="auto-start-reverse"><path d="M 0 0 L 10 5 L 0 10 z" fill="#5B9BD5"></path></marker>
<marker id="arrow-black" viewBox="0 0 10 10" refX="9" refY="5" markerWidth="10" markerHeight="10" orient="auto-start-reverse"><path d="M 0 0 L 10 5 L 0 10 z" fill="#000000"></path></marker>
<filter id="drop-shadow" x="-50%" y="-50%" width="200%" height="200%"><feGaussianBlur in="SourceAlpha" stdDeviation="4"></feGaussianBlur>
<feOffset dx="2" dy="2" result="offsetblur"></feOffset>
<feComponentTransfer ><feFuncA type="linear" slope="0.15"></feFuncA></feComponentTransfer>
<feMerge ><feMergeNode ></feMergeNode>
<feMergeNode in="SourceGraphic"></feMergeNode></feMerge></filter>
<marker id="arrow-event" viewBox="0 0 10 10" refX="9" refY="5" markerWidth="6" markerHeight="6" orient="auto-start-reverse"><path d="M 0 0 L 10 5 L 0 10 z" fill="#FF6B6B"></path></marker>
<marker id="arrow-flow" viewBox="0 0 10 10" refX="9" refY="5" markerWidth="6" markerHeight="6" orient="auto-start-reverse"><path d="M 0 0 L 10 5 L 0 10 z" fill="#4ECDC4"></path></marker>
<marker id="arrow-operation" viewBox="0 0 10 10" refX="9" refY="5" markerWidth="6" markerHeight="6" orient="auto-start-reverse"><path d="M 0 0 L 10 5 L 0 10 z" fill="#95E1D3"></path></marker>
<marker id="arrow-data" viewBox="0 0 10 10" refX="9" refY="5" markerWidth="6" markerHeight="6" orient="auto-start-reverse"><path d="M 0 0 L 10 5 L 0 10 z" fill="#5B9BD5"></path></marker>
<marker id="arrow-shared_data" viewBox="0 0 10 10" refX="9" refY="5" markerWidth="6" markerHeight="6" orient="auto-start-reverse"><path d="M 0 0 L 10 5 L 0 10 z" fill="#9B59B6"></path></marker>
<marker id="arrow-unset" viewBox="0 0 10 10" refX="9" refY="5" markerWidth="6" markerHeight="6" orient="auto-start-reverse"><path d="M 0 0 L 10 5 L 0 10 z" fill="#95A5A6"></path></marker>
</defs>

<rect x="0" y="0" width="320" height="600" fill="#FFFFFF" stroke="none" />
<g id="layer-edges" class="edges-layer"></g>
<g id="layer-components" class="components-layer"><g id="component-LC-001"><rect x="40" y="220" width="160" height="80" rx="8" ry="8" fill="#70AD47" class="component-node" stroke="#000000" stroke-width="2" filter="url(#drop-shadow)" />
<text x="120" y="240" text-anchor="middle" font-family="Helvetica Neue, Arial, sans-serif" font-size="12" font-weight="bold" fill="#FFFFFF" class="component-label">Sensor Fusion</text>
<text x="120" y="256" text-anchor="middle" font-family="Helvetica Neue, Arial, sans-serif" font-size="12" font-weight="bold" fill="#FFFFFF" class="component-label">Controller</text>
<text x="190" y="234" text-anchor="end" font-family="Arial, sans-serif" font-size="10" fill="#E8F4F8">LC-001</text>
<circle cx="58" cy="238" r="8" fill="none" stroke="#FFFFFF" stroke-width="1.5" />
<line x1="68" y1="238" x2="71" y2="238" stroke="#FFFFFF" stroke-width="1.5" />
<line x1="65.07106781186548" y1="245.07106781186548" x2="67.19238815542512" y2="247.1923881554251" stroke="#FFFFFF" stroke-width="1.5" />
<line x1="58" y1="248" x2="58" y2="251" stroke="#FFFFFF" stroke-width="1.5" />
<line x1="50.928932188134524" y1="245.07106781186548" x2="48.80761184457488" y2="247.1923881554251" stroke="#FFFFFF" stroke-width="1.5" />
<line x1="48" y1="238" x2="45" y2="238" stroke="#FFFFFF" stroke-width="1.5" />
<line x1="50.928932188134524" y1="230.92893218813452" x2="48.80761184457488" y2="228.8076118445749" stroke="#FFFFFF" stroke-width="1.5" />
<line x1="58" y1="228" x2="58" y2="225" stroke="#FFFFFF" stroke-width="1.5" />
<line x1="65.07106781186548" y1="230.92893218813452" x2="67.19238815542512" y2="228.8076118445749" stroke="#FFFFFF" stroke-width="1.5" />
<text x="120" y="288" text-anchor="middle" font-family="Arial, sans-serif" font-size="9" font-style="italic" fill="#E8F4F8"><<sensor>></text></g>
<g id="component-LC-002"><rect x="40" y="400" width="160" height="80" rx="8" ry="8" fill="#4472C4" class="component-node" stroke="#000000" stroke-width="2" filter="url(#drop-shadow)" />
<text x="120" y="420" text-anchor="middle" font-family="Helvetica Neue, Arial, sans-serif" font-size="12" font-weight="bold" fill="#FFFFFF" class="component-label">Braking Decision</text>
<text x="120" y="436" text-anchor="middle" font-family="Helvetica Neue, Arial, sans-serif" font-size="12" font-weight="bold" fill="#FFFFFF" class="component-label">Controller</text>
<text x="190" y="414" text-anchor="end" font-family="Arial, sans-serif" font-size="10" fill="#E8F4F8">LC-002</text>
<rect x="50" y="410" width="16" height="16" fill="none" stroke="#FFFFFF" stroke-width="1.5" rx="2" ry="2" />
<line x1="47" y1="413" x2="50" y2="413" stroke="#FFFFFF" stroke-width="1" />
<line x1="66" y1="413" x2="69" y2="413" stroke="#FFFFFF" stroke-width="1" />
<line x1="47" y1="418" x2="50" y2="418" stroke="#FFFFFF" stroke-width="1" />
<line x1="66" y1="418" x2="69" y2="418" stroke="#FFFFFF" stroke-width="1" />
<line x1="47" y1="423" x2="50" y2="423" stroke="#FFFFFF" stroke-width="1" />
<line x1="66" y1="423" x2="69" y2="423" stroke="#FFFFFF" stroke-width="1" />
<text x="120" y="468" text-anchor="middle" font-family="Arial, sans-serif" font-size="9" font-style="italic" fill="#E8F4F8"><<controller>></text></g>
<g id="component-LC-003"><rect x="40" y="40" width="160" height="80" rx="8" ry="8" fill="#4472C4" class="component-node" stroke="#000000" stroke-width="2" filter="url(#drop-shadow)" />
<text x="120" y="60" text-anchor="middle" font-family="Helvetica Neue, Arial, sans-serif" font-size="12" font-weight="bold" fill="#FFFFFF" class="component-label">Brake Actuator</text>
<text x="120" y="76" text-anchor="middle" font-family="Helvetica Neue, Arial, sans-serif" font-size="12" font-weight="bold" fill="#FFFFFF" class="component-label">Controller</text>
<text x="190" y="54" text-anchor="end" font-family="Arial, sans-serif" font-size="10" fill="#E8F4F8">LC-003</text>
<rect x="50" y="50" width="16" height="16" fill="none" stroke="#FFFFFF" stroke-width="1.5" rx="2" ry="2" />
<line x1="47" y1="53" x2="50" y2="53" stroke="#FFFFFF" stroke-width="1" />
<line x1="66" y1="53" x2="69" y2="53" stroke="#FFFFFF" stroke-width="1" />
<line x1="47" y1="58" x2="50" y2="58" stroke="#FFFFFF" stroke-width="1" />
<line x1="66" y1="58" x2="69" y2="58" stroke="#FFFFFF" stroke-width="1" />
<line x1="47" y1="63" x2="50" y2="63" stroke="#FFFFFF" stroke-width="1" />
<line x1="66" y1="63" x2="69" y2="63" stroke="#FFFFFF" stroke-width="1" />
<text x="120" y="108" text-anchor="middle" font-family="Arial, sans-serif" font-size="9" font-style="italic" fill="#E8F4F8"><<controller>></text></g></g>
<g id="layer-labels" class="labels-layer"><text x="20" y="30" font-family="Helvetica Neue, Arial, sans-serif" font-size="18" font-weight="bold" fill="#212529">Emergency Braking Logical Architecture</text>
<text x="20" y="590" font-family="Helvetica Neue, Arial, sans-serif" font-size="11" fill="#666">Components: 3 | Exchanges: 0</text></g>
</svg>