<?xml version="1.0" encoding="UTF-8"?>
<svg width="280" height="560" viewBox="0 0 280 560" xmlns="http://www.w3.org/2000/svg" xmlns:xlink="http://www.w3.org/1999/xlink">
<defs>
<marker id="arrow-event" viewBox="0 0 10 10" refX="9" refY="5" markerWidth="6" markerHeight="6" orient="auto-start-reverse"><path d="M 0 0 L 10 5 L 0 10 z" fill="#FF6B6B"></path></marker>
<marker id="arrow-flow" viewBox="0 0 10 10" refX="9" refY="5" markerWidth="6" markerHeight="6" orient="auto-start-reverse"><path d="M 0 0 L 10 5 L 0 10 z" fill="#4ECDC4"></path></marker>
<marker id="arrow-operation" viewBox="0 0 10 10" refX="9" refY="5" markerWidth="6" markerHeight="6" orient="auto-start-reverse"><path d="M 0 0 L 10 5 L 0 10 z" fill="#95E1D3"></path></marker>
<marker id="arrow-data" viewBox="0 0 10 10" refX="9" refY="5" markerWidth="6" markerHeight="6" orient="auto-start-reverse"><path d="M 0 0 L 10 5 L 0 10 z" fill="#808080"></path></marker>
<marker id="arrow-shared_data" viewBox="0 0 10 10" refX="9" refY="5" markerWidth="6" markerHeight="6" orient="auto-start-reverse"><path d="M 0 0 L 10 5 L 0 10 z" fill="#9B59B6"></path></marker>
<marker id="arrow-unset" viewBox="0 0 10 10" refX="9" refY="5" markerWidth="6" markerHeight="6" orient="auto-start-reverse"><path d="M 0 0 L 10 5 L 0 10 z" fill="#95A5A6"></path></marker>
</defs>

<rect x="0" y="0" width="280" height="560" rx="0" ry="0" fill="#FFFFFF" stroke="none" />
<g id="system-boundary" class="system-boundary-group"><rect x="0" y="0" width="260" height="540" rx="12" ry="12" fill="#E8F4F8" fill-opacity="0.1" stroke="#2E75B6" stroke-width="3" stroke-dasharray="none" />
<text x="130" y="-15" text-anchor="middle" font-family="Helvetica Neue, Arial, sans-serif" font-size="16" font-weight="bold" fill="#2E75B6">Emergency Braking SA</text></g>
<g id="node-SF-Det"><rect x="40" y="220" width="180" height="100" rx="8" ry="8" fill="#70AD47" stroke="#000000" stroke-width="2" />
<text x="130" y="250" text-anchor="middle" font-family="Arial, sans-serif" font-size="12" font-weight="bold" fill="#000000">DetectObstacle</text>
<text x="215" y="234" text-anchor="end" font-family="Arial, sans-serif" font-size="10" fill="#2C5F2D">SF-Det</text></g>
<g id="node-SF-Cal"><rect x="40" y="400" width="180" height="100" rx="8" ry="8" fill="#70AD47" stroke="#000000" stroke-width="2" />
<text x="130" y="430" text-anchor="middle" font-family="Arial, sans-serif" font-size="12" font-weight="bold" fill="#000000">CalculateBraking</text>
<text x="215" y="414" text-anchor="end" font-family="Arial, sans-serif" font-size="10" fill="#2C5F2D">SF-Cal</text></g>
<g id="node-SF-App"><rect x="40" y="40" width="180" height="100" rx="8" ry="8" fill="#70AD47" stroke="#000000" stroke-width="2" />
<text x="130" y="70" text-anchor="middle" font-family="Arial, sans-serif" font-size="12" font-weight="bold" fill="#000000">ApplyBrakes</text>
<text x="215" y="54" text-anchor="end" font-family="Arial, sans-serif" font-size="10" fill="#2C5F2D">SF-App</text></g>
<text x="20" y="30" font-family="Arial, sans-serif" font-size="18" font-weight="bold" fill="#212529">Emergency Braking SA</text>
</svg>