<?xml version="1.0" encoding="UTF-8"?>
<svg width="920" height="380" viewBox="0 0 920 380" xmlns="http://www.w3.org/2000/svg" xmlns:xlink="http://www.w3.org/1999/xlink">
<defs>
<marker id="arrow-black" viewBox="0 0 10 10" refX="9" refY="5" markerWidth="10" markerHeight="10" orient="auto-start-reverse"><path d="M 0 0 L 10 5 L 0 10 z" fill="#000000"></path></marker>
<marker id="arrow-blue" viewBox="0 0 10 10" refX="9" refY="5" markerWidth="10" markerHeight="10" orient="auto-start-reverse"><path d="M 0 0 L 10 5 L 0 10 z" fill="#2E75B6"></path></marker>
</defs>

<rect x="0" y="0" width="920" height="380" rx="0" ry="0" fill="#FFFFFF" stroke="none" />
<rect x="0" y="60" width="920" height="180" rx="5" ry="5" fill="#F8F9FA" stroke="#CED4DA" stroke-width="2" />
<rect x="0" y="60" width="200" height="180" rx="5" ry="5" fill="#E9ECEF" stroke="#CED4DA" stroke-width="2" />
<g ><circle cx="100" cy="92" r="12" fill="none" stroke="#2E75B6" stroke-width="2" />
<line x1="100" y1="104" x2="100" y2="134" stroke="#2E75B6" stroke-width="2" />
<line x1="82" y1="113" x2="118" y2="113" stroke="#2E75B6" stroke-width="2" />
<line x1="100" y1="134" x2="85" y2="149" stroke="#2E75B6" stroke-width="2" />
<line x1="100" y1="134" x2="115" y2="149" stroke="#2E75B6" stroke-width="2" /></g>
<g ><text x="100" y="160" text-anchor="middle" font-family="Arial, sans-serif" font-size="12" font-weight="bold" fill="#212529">Vehicle System</text></g>
<rect x="0" y="280" width="920" height="180" rx="5" ry="5" fill="#F8F9FA" stroke="#CED4DA" stroke-width="2" />
<rect x="0" y="280" width="200" height="180" rx="5" ry="5" fill="#E9ECEF" stroke="#CED4DA" stroke-width="2" />
<g ><circle cx="100" cy="312" r="12" fill="none" stroke="#2E75B6" stroke-width="2" />
<line x1="100" y1="324" x2="100" y2="354" stroke="#2E75B6" stroke-width="2" />
<line x1="82" y1="333" x2="118" y2="333" stroke="#2E75B6" stroke-width="2" />
<line x1="100" y1="354" x2="85" y2="369" stroke="#2E75B6" stroke-width="2" />
<line x1="100" y1="354" x2="115" y2="369" stroke="#2E75B6" stroke-width="2" /></g>
<g ><text x="100" y="380" text-anchor="middle" font-family="Arial, sans-serif" font-size="12" font-weight="bold" fill="#212529">Driver</text></g>
<g id="edge-OA-01-OA-02"><path d="M 220 80 L 280 80 Q 290 80, NaN NaN L NaN NaN Q 290 80, 300 80 L 360 80" fill="none" stroke="#000000" stroke-width="2" marker-end="url(#arrow-black)"></path>
<rect x="231.2" y="70" width="117.6" height="20" rx="3" ry="3" fill="#FFFFFF" stroke="#CED4DA" stroke-width="1" />
<text x="290" y="80" text-anchor="middle" dominant-baseline="middle" font-family="Arial, sans-serif" font-size="11" fill="#495057">Environment Data</text></g>
<g id="edge-OA-02-OA-03"><path d="M 540 80 L 600 80 Q 610 80, NaN NaN L NaN NaN Q 610 80, 620 80 L 680 80" fill="none" stroke="#000000" stroke-width="2" marker-end="url(#arrow-black)"></path>
<rect x="554.5" y="70" width="111" height="20" rx="3" ry="3" fill="#FFFFFF" stroke="#CED4DA" stroke-width="1" />
<text x="610" y="80" text-anchor="middle" dominant-baseline="middle" font-family="Arial, sans-serif" font-size="11" fill="#495057">Collision Alert</text></g>
<g id="node-OA-01"><rect x="40" y="30" width="180" height="100" rx="8" ry="8" fill="#FFD966" stroke="#000000" stroke-width="2" />
<text x="130" y="72" text-anchor="middle" dominant-baseline="middle" font-family="Arial, sans-serif" font-size="12" fill="#000000">Monitor Environment</text>
<text x="215" y="42" text-anchor="end" font-family="Arial, sans-serif" font-size="10" fill="#6C757D">OA-01</text></g>
<g id="node-OA-02"><rect x="360" y="30" width="180" height="100" rx="8" ry="8" fill="#FFD966" stroke="#000000" stroke-width="2" />
<text x="450" y="72" text-anchor="middle" dominant-baseline="middle" font-family="Arial, sans-serif" font-size="12" fill="#000000">Detect Collision Risk</text>
<text x="535" y="42" text-anchor="end" font-family="Arial, sans-serif" font-size="10" fill="#6C757D">OA-02</text></g>
<g id="node-OA-03"><rect x="680" y="30" width="180" height="100" rx="8" ry="8" fill="#FFD966" stroke="#000000" stroke-width="2" />
<text x="770" y="72" text-anchor="middle" dominant-baseline="middle" font-family="Arial, sans-serif" font-size="12" fill="#000000">Apply Emergency Brake</text>
<text x="855" y="42" text-anchor="end" font-family="Arial, sans-serif" font-size="10" fill="#6C757D">OA-03</text></g>
<g id="node-OA-04"><rect x="40" y="220" width="180" height="100" rx="8" ry="8" fill="#FFD966" stroke="#000000" stroke-width="2" />
<text x="130" y="262" text-anchor="middle" dominant-baseline="middle" font-family="Arial, sans-serif" font-size="12" fill="#000000">Decide to Brake</text>
<text x="215" y="232" text-anchor="end" font-family="Arial, sans-serif" font-size="10" fill="#6C757D">OA-04</text></g>
<text x="20" y="30" font-family="Arial, sans-serif" font-size="18" font-weight="bold" fill="#212529">Emergency Braking Operational Context</text>
<g id="optimization-badge"><rect x="20" y="50" width="300" height="70" rx="5" ry="5" fill="#F0F8FF" stroke="#4472C4" stroke-width="2" />
<text x="30" y="70" font-family="Arial, sans-serif" font-size="14" font-weight="bold" fill="#4472C4">Hybrid ELK+Dagre+D3 Engine</text>
<text x="30" y="95" font-family="Arial, sans-serif" font-size="11" fill="#6C757D">ELK: 100 | Dagre: 100 | D3: 100 | 85ms</text></g>
</svg>