<?xml version="1.0" encoding="UTF-8"?>
<svg width="327" height="440" viewBox="0 0 327 440" xmlns="http://www.w3.org/2000/svg" xmlns:xlink="http://www.w3.org/1999/xlink">
<defs>
<marker id="arrow-physical" viewBox="0 0 10 10" refX="9" refY="5" markerWidth="10" markerHeight="10" orient="auto-start-reverse"><path d="M 0 0 L 10 5 L 0 10 z" fill="#FFE699"></path></marker>
<marker id="arrow-black" viewBox="0 0 10 10" refX="9" refY="5" markerWidth="10" markerHeight="10" orient="auto-start-reverse"><path d="M 0 0 L 10 5 L 0 10 z" fill="#000000"></path></marker>
</defs>

<rect x="0" y="0" width="327" height="440" fill="#FFFFFF" stroke="none" />
<g id="node-PN-Eme"><rect x="43.5" y="40" width="160" height="80" rx="5" ry="5" fill="#FFE699" stroke="#000000" stroke-width="2" />
<path d="M 43.5 40 
                     L 53.5 30 
                     L 213.5 30 
                     L 203.5 40 Z" fill="#ffffb8" stroke="#000000" stroke-width="1.5"></path>
<path d="M 203.5 40 
                       L 213.5 30 
                       L 213.5 110 
                       L 203.5 120 Z" fill="#ccb87a" stroke="#000000" stroke-width="1.5"></path>
<text x="123.5" y="65" text-anchor="middle" font-family="Arial, sans-serif" font-size="12" font-weight="bold" fill="#000000">Emergency Brake ECU</text>
<text x="193.5" y="54" text-anchor="end" font-family="Arial, sans-serif" font-size="10" fill="#495057">PN-Eme</text>
<text x="123.5" y="105" text-anchor="middle" font-family="Arial, sans-serif" font-size="10" font-style="italic" fill="#495057">«hardware»</text></g>
<g id="node-PN-Bra"><rect x="40" y="240" width="167" height="80" rx="5" ry="5" fill="#FFE699" stroke="#000000" stroke-width="2" />
<path d="M 40 240 
                     L 50 230 
                     L 217 230 
                     L 207 240 Z" fill="#ffffb8" stroke="#000000" stroke-width="1.5"></path>
<path d="M 207 240 
                       L 217 230 
                       L 217 310 
                       L 207 320 Z" fill="#ccb87a" stroke="#000000" stroke-width="1.5"></path>
<text x="123.5" y="265" text-anchor="middle" font-family="Arial, sans-serif" font-size="12" font-weight="bold" fill="#000000">Brake Actuator ECU</text>
<text x="197" y="254" text-anchor="end" font-family="Arial, sans-serif" font-size="10" fill="#495057">PN-Bra</text>
<text x="123.5" y="305" text-anchor="middle" font-family="Arial, sans-serif" font-size="10" font-style="italic" fill="#495057">«hardware»</text></g>
<text x="20" y="30" font-family="Arial, sans-serif" font-size="18" font-weight="bold" fill="#212529">Emergency Braking Physical Architecture</text>
</svg>