<svg id="arch-diagram" width="7445.94140625" height="2629" style="background: white;" xmlns="http://www.w3.org/2000/svg" xmlns:xlink="http://www.w3.org/1999/xlink" viewBox="0 0 7445.94140625 2629"><style>
                    .edgePath path { stroke: #607d8b; stroke-width: 2px; fill: none; }
                    .arrowhead { fill: #607d8b; }
                    .cluster rect { stroke: #37474f; stroke-width: 2px; }
                    text { font-family: Arial, sans-serif; }
                </style><g transform="translate(8.2825981060804,50) scale(0.1656519621216082)"><g class="output"><g class="clusters"><g class="cluster" transform="translate(224.5,1314.5)" style="opacity: 1;"><rect style="fill: #E1F5FE; stroke: #37474f; stroke-width: 2px;" width="369" height="2549" x="-184.5" y="-1274.5"/><g class="label"><g transform="translate(-38.99609375,-1274.5)"><text><tspan xml:space="preserve" dy="1em" x="1">User Layer</tspan></text></g></g></g><g class="cluster" transform="translate(792.26953125,1676)" style="opacity: 1;"><rect style="fill: #FFF3E0; stroke: #37474f; stroke-width: 2px;" width="726.5390625" height="1826" x="-363.26953125" y="-913"/><g class="label"><g transform="translate(-67.40234375,-913)"><text><tspan xml:space="preserve" dy="1em" x="1">Connectivity Layer</tspan></text></g></g></g><g class="cluster" transform="translate(1934.615234375,1871.75)" style="opacity: 1;"><rect style="fill: #F3E5F5; stroke: #37474f; stroke-width: 2px;" width="1518.15234375" height="1434.5" x="-759.076171875" y="-717.25"/><g class="label"><g transform="translate(-48.53125,-717.25)"><text><tspan xml:space="preserve" dy="1em" x="1">Control Layer</tspan></text></g></g></g><g class="cluster" transform="translate(3449.31640625,2233.25)" style="opacity: 1;"><rect style="fill: #E8F5E9; stroke: #37474f; stroke-width: 2px;" width="1471.25" height="711.5" x="-735.625" y="-355.75"/><g class="label"><g transform="translate(-48.1484375,-355.75)"><text><tspan xml:space="preserve" dy="1em" x="1">Vehicle Layer</tspan></text></g></g></g><g class="cluster" transform="translate(5805.44140625,2429)" style="opacity: 1;"><rect style="fill: #FCE4EC; stroke: #37474f; stroke-width: 2px;" width="3201" height="320" x="-1600.5" y="-160"/><g class="label"><g transform="translate(-51.60546875,-160)"><text><tspan xml:space="preserve" dy="1em" x="1">Physical Layer</tspan></text></g></g></g></g><g class="edgePaths"><g class="edgePath" style="opacity: 1;"><path class="path" d="M224.5,300L224.5,310.9583333333333C224.5,321.9166666666667,224.5,343.8333333333333,224.5,365.75C224.5,387.6666666666667,224.5,409.5833333333333,224.5,420.5416666666667L224.5,431.5" marker-end="url(#arrowhead222)" style="fill: none;"/><defs><marker id="arrowhead222" viewBox="0 0 10 10" refX="9" refY="5" markerUnits="strokeWidth" markerWidth="8" markerHeight="6" orient="auto"><path d="M 0 0 L 10 5 L 0 10 z" class="arrowhead" style="stroke-width: 1; stroke-dasharray: 1, 0;"/></marker></defs></g><g class="edgePath" style="opacity: 1;"><path class="path" d="M224.5,631.5L224.5,642.4583333333334C224.5,653.4166666666666,224.5,675.3333333333334,224.5,697.25C224.5,719.1666666666666,224.5,741.0833333333334,300.5416666666667,773.1368841207918C376.5833333333333,805.1904349082503,528.6666666666666,847.3808698165006,604.7083333333334,868.4760872706257L680.75,889.5713047247508" marker-end="url(#arrowhead223)" style="fill: none;"/><defs><marker id="arrowhead223" viewBox="0 0 10 10" refX="9" refY="5" markerUnits="strokeWidth" markerWidth="8" markerHeight="6" orient="auto"><path d="M 0 0 L 10 5 L 0 10 z" class="arrowhead" style="stroke-width: 1; stroke-dasharray: 1, 0;"/></marker></defs></g><g class="edgePath" style="opacity: 1;"><path class="path" d="M690.0886123680241,1023L677.9071769733533,1033.9583333333333C665.7257415786827,1044.9166666666667,641.3628707893414,1066.8333333333333,629.1814353946706,1088.75C617,1110.6666666666667,617,1132.5833333333333,617,1170.2083333333333C617,1207.8333333333333,617,1261.1666666666667,617,1315.4583333333333C617,1369.75,617,1425,617,1480.25C617,1535.5,617,1590.75,617,1646C617,1701.25,617,1756.5,617,1795.0833333333333C617,1833.6666666666667,617,1855.5833333333333,617,1893.2083333333333C617,1930.8333333333333,617,1984.1666666666667,617,2038.4583333333333C617,2092.75,617,2148,617,2186.5833333333335C617,2225.1666666666665,617,2247.0833333333335,617,2268.0416666666665C617,2289,617,2309,617,2319L617,2329" marker-end="url(#arrowhead224)" style="fill: none;"/><defs><marker id="arrowhead224" viewBox="0 0 10 10" refX="9" refY="5" markerUnits="strokeWidth" markerWidth="8" markerHeight="6" orient="auto"><path d="M 0 0 L 10 5 L 0 10 z" class="arrowhead" style="stroke-width: 1; stroke-dasharray: 1, 0;"/></marker></defs></g><g class="edgePath" style="opacity: 1;"><path class="path" d="M894.0101809954751,1023L904.1751508295625,1033.9583333333333C914.34012066365,1044.9166666666667,934.670060331825,1066.8333333333333,944.8350301659125,1088.75C955,1110.6666666666667,955,1132.5833333333333,955,1170.2083333333333C955,1207.8333333333333,955,1261.1666666666667,955,1315.4583333333333C955,1369.75,955,1425,955,1480.25C955,1535.5,955,1590.75,955,1646C955,1701.25,955,1756.5,955,1795.0833333333333C955,1833.6666666666667,955,1855.5833333333333,955,1893.2083333333333C955,1930.8333333333333,955,1984.1666666666667,955,2038.4583333333333C955,2092.75,955,2148,955,2186.5833333333335C955,2225.1666666666665,955,2247.0833333333335,955,2268.0416666666665C955,2289,955,2309,955,2319L955,2329" marker-end="url(#arrowhead225)" style="fill: none;"/><defs><marker id="arrowhead225" viewBox="0 0 10 10" refX="9" refY="5" markerUnits="strokeWidth" markerWidth="8" markerHeight="6" orient="auto"><path d="M 0 0 L 10 5 L 0 10 z" class="arrowhead" style="stroke-width: 1; stroke-dasharray: 1, 0;"/></marker></defs></g><g class="edgePath" style="opacity: 1;"><path class="path" d="M906.0765460030166,1023L917.5637883358471,1033.9583333333333C929.0510306686778,1044.9166666666667,952.0255153343388,1066.8333333333333,963.5127576671694,1088.75C975,1110.6666666666667,975,1132.5833333333333,1103.4231770833333,1166.6020567192445C1231.8463541666667,1200.6207801051557,1488.6927083333333,1246.7415602103117,1617.1158854166667,1269.8019502628895L1745.5390625,1292.8623403154675" marker-end="url(#arrowhead226)" style="fill: none;"/><defs><marker id="arrowhead226" viewBox="0 0 10 10" refX="9" refY="5" markerUnits="strokeWidth" markerWidth="8" markerHeight="6" orient="auto"><path d="M 0 0 L 10 5 L 0 10 z" class="arrowhead" style="stroke-width: 1; stroke-dasharray: 1, 0;"/></marker></defs></g><g class="edgePath" style="opacity: 1;"><path class="path" d="M1764.9832555618402,1414.5L1753.909223384867,1425.4583333333333C1742.8351912078936,1436.4166666666667,1720.687126853947,1458.3333333333333,1709.6130946769733,1496.9166666666667C1698.5390625,1535.5,1698.5390625,1590.75,1698.5390625,1646C1698.5390625,1701.25,1698.5390625,1756.5,1698.5390625,1795.0833333333333C1698.5390625,1833.6666666666667,1698.5390625,1855.5833333333333,1698.5390625,1876.5416666666667C1698.5390625,1897.5,1698.5390625,1917.5,1698.5390625,1927.5L1698.5390625,1937.5" marker-end="url(#arrowhead227)" style="fill: none;"/><defs><marker id="arrowhead227" viewBox="0 0 10 10" refX="9" refY="5" markerUnits="strokeWidth" markerWidth="8" markerHeight="6" orient="auto"><path d="M 0 0 L 10 5 L 0 10 z" class="arrowhead" style="stroke-width: 1; stroke-dasharray: 1, 0;"/></marker></defs></g><g class="edgePath" style="opacity: 1;"><path class="path" d="M1967.0948694381598,1414.5L1978.168901615133,1425.4583333333333C1989.2429337921064,1436.4166666666667,2011.390998146053,1458.3333333333333,2022.4650303230267,1496.9166666666667C2033.5390625,1535.5,2033.5390625,1590.75,2033.5390625,1646C2033.5390625,1701.25,2033.5390625,1756.5,2033.5390625,1795.0833333333333C2033.5390625,1833.6666666666667,2033.5390625,1855.5833333333333,2033.5390625,1876.5416666666667C2033.5390625,1897.5,2033.5390625,1917.5,2033.5390625,1927.5L2033.5390625,1937.5" marker-end="url(#arrowhead228)" style="fill: none;"/><defs><marker id="arrowhead228" viewBox="0 0 10 10" refX="9" refY="5" markerUnits="strokeWidth" markerWidth="8" markerHeight="6" orient="auto"><path d="M 0 0 L 10 5 L 0 10 z" class="arrowhead" style="stroke-width: 1; stroke-dasharray: 1, 0;"/></marker></defs></g><g class="edgePath" style="opacity: 1;"><path class="path" d="M1986.5390625,1349.9703850156088L2060.3033854166665,1371.683654179674C2134.0677083333335,1393.3969233437392,2281.5963541666665,1436.8234616718698,2355.3606770833335,1469.4950641692683C2429.125,1502.1666666666667,2429.125,1524.0833333333333,2429.125,1535.0416666666667L2429.125,1546" marker-end="url(#arrowhead229)" style="fill: none;"/><defs><marker id="arrowhead229" viewBox="0 0 10 10" refX="9" refY="5" markerUnits="strokeWidth" markerWidth="8" markerHeight="6" orient="auto"><path d="M 0 0 L 10 5 L 0 10 z" class="arrowhead" style="stroke-width: 1; stroke-dasharray: 1, 0;"/></marker></defs></g><g class="edgePath" style="opacity: 1;"><path class="path" d="M1745.5390625,1353.7009322865554L1680.7057291666667,1374.7924435721295C1615.8723958333333,1395.8839548577034,1486.2057291666667,1438.0669774288517,1421.3723958333333,1486.783488714426C1356.5390625,1535.5,1356.5390625,1590.75,1356.5390625,1646C1356.5390625,1701.25,1356.5390625,1756.5,1356.5390625,1795.0833333333333C1356.5390625,1833.6666666666667,1356.5390625,1855.5833333333333,1356.5390625,1876.5416666666667C1356.5390625,1897.5,1356.5390625,1917.5,1356.5390625,1927.5L1356.5390625,1937.5" marker-end="url(#arrowhead230)" style="fill: none;"/><defs><marker id="arrowhead230" viewBox="0 0 10 10" refX="9" refY="5" markerUnits="strokeWidth" markerWidth="8" markerHeight="6" orient="auto"><path d="M 0 0 L 10 5 L 0 10 z" class="arrowhead" style="stroke-width: 1; stroke-dasharray: 1, 0;"/></marker></defs></g><g class="edgePath" style="opacity: 1;"><path class="path" d="M2315.8260746606334,1746L2303.410400758861,1756.9583333333333C2290.994726857089,1767.9166666666667,2266.1633790535448,1789.8333333333333,2253.747705151772,1811.75C2241.33203125,1833.6666666666667,2241.33203125,1855.5833333333333,2461.1002604166665,1890.9839630104304C2680.8684895833335,1926.3845926875274,3120.4049479166665,1975.2691853750548,3340.1731770833335,1999.7114817188185L3559.94140625,2024.1537780625822" marker-end="url(#arrowhead231)" style="fill: none;"/><defs><marker id="arrowhead231" viewBox="0 0 10 10" refX="9" refY="5" markerUnits="strokeWidth" markerWidth="8" markerHeight="6" orient="auto"><path d="M 0 0 L 10 5 L 0 10 z" class="arrowhead" style="stroke-width: 1; stroke-dasharray: 1, 0;"/></marker></defs></g><g class="edgePath" style="opacity: 1;"><path class="path" d="M2478.2200226244345,1746L2483.6000188536955,1756.9583333333333C2488.9800150829565,1767.9166666666667,2499.7400075414785,1789.8333333333333,2505.120003770739,1811.75C2510.5,1833.6666666666667,2510.5,1855.5833333333333,2738.740234375,1890.9370353481188C2966.98046875,1926.290737362904,3423.4609375,1975.0814747258082,3651.701171875,1999.4768434072603L3879.94140625,2023.872212088712" marker-end="url(#arrowhead232)" style="fill: none;"/><defs><marker id="arrowhead232" viewBox="0 0 10 10" refX="9" refY="5" markerUnits="strokeWidth" markerWidth="8" markerHeight="6" orient="auto"><path d="M 0 0 L 10 5 L 0 10 z" class="arrowhead" style="stroke-width: 1; stroke-dasharray: 1, 0;"/></marker></defs></g><g class="edgePath" style="opacity: 1;"><path class="path" d="M1356.5390625,2137.5L1356.5390625,2148.4583333333335C1356.5390625,2159.4166666666665,1356.5390625,2181.3333333333335,1356.5390625,2203.25C1356.5390625,2225.1666666666665,1356.5390625,2247.0833333333335,1644.3977864583333,2282.975936971535C1932.2565104166667,2318.868540609736,2507.9739583333335,2368.7370812194727,2795.8326822916665,2393.671351524341L3083.69140625,2418.605621829209" marker-end="url(#arrowhead233)" style="fill: none;"/><defs><marker id="arrowhead233" viewBox="0 0 10 10" refX="9" refY="5" markerUnits="strokeWidth" markerWidth="8" markerHeight="6" orient="auto"><path d="M 0 0 L 10 5 L 0 10 z" class="arrowhead" style="stroke-width: 1; stroke-dasharray: 1, 0;"/></marker></defs></g><g class="edgePath" style="opacity: 1;"><path class="path" d="M1698.5390625,2137.5L1698.5390625,2148.4583333333335C1698.5390625,2159.4166666666665,1698.5390625,2181.3333333333335,1698.5390625,2203.25C1698.5390625,2225.1666666666665,1698.5390625,2247.0833333333335,1982.7311197916667,2282.9550550325066C2266.9231770833335,2318.8267767316797,2835.3072916666665,2368.6535534633595,3119.4993489583335,2393.5669418291995L3403.69140625,2418.480330195039" marker-end="url(#arrowhead234)" style="fill: none;"/><defs><marker id="arrowhead234" viewBox="0 0 10 10" refX="9" refY="5" markerUnits="strokeWidth" markerWidth="8" markerHeight="6" orient="auto"><path d="M 0 0 L 10 5 L 0 10 z" class="arrowhead" style="stroke-width: 1; stroke-dasharray: 1, 0;"/></marker></defs></g><g class="edgePath" style="opacity: 1;"><path class="path" d="M2033.5390625,2137.5L2033.5390625,2148.4583333333335C2033.5390625,2159.4166666666665,2033.5390625,2181.3333333333335,2033.5390625,2203.25C2033.5390625,2225.1666666666665,2033.5390625,2247.0833333333335,2315.2311197916665,2282.9405263246863C2596.9231770833335,2318.797719316039,3160.3072916666665,2368.5954386320786,3441.9993489583335,2393.4942982900984L3723.69140625,2418.393157948118" marker-end="url(#arrowhead235)" style="fill: none;"/><defs><marker id="arrowhead235" viewBox="0 0 10 10" refX="9" refY="5" markerUnits="strokeWidth" markerWidth="8" markerHeight="6" orient="auto"><path d="M 0 0 L 10 5 L 0 10 z" class="arrowhead" style="stroke-width: 1; stroke-dasharray: 1, 0;"/></marker></defs></g><g class="edgePath" style="opacity: 1;"><path class="path" d="M3679.94140625,2137.5L3679.94140625,2148.4583333333335C3679.94140625,2159.4166666666665,3679.94140625,2181.3333333333335,3679.94140625,2203.25C3679.94140625,2225.1666666666665,3679.94140625,2247.0833333333335,3690.17578125,2268.0416666666665C3700.41015625,2289,3720.87890625,2309,3731.11328125,2319L3741.34765625,2329" marker-end="url(#arrowhead236)" style="fill: none;"/><defs><marker id="arrowhead236" viewBox="0 0 10 10" refX="9" refY="5" markerUnits="strokeWidth" markerWidth="8" markerHeight="6" orient="auto"><path d="M 0 0 L 10 5 L 0 10 z" class="arrowhead" style="stroke-width: 1; stroke-dasharray: 1, 0;"/></marker></defs></g><g class="edgePath" style="opacity: 1;"><path class="path" d="M4007.44140625,2137.5L4007.44140625,2148.4583333333335C4007.44140625,2159.4166666666665,4007.44140625,2181.3333333333335,4007.44140625,2203.25C4007.44140625,2225.1666666666665,4007.44140625,2247.0833333333335,3997.20703125,2268.0416666666665C3986.97265625,2289,3966.50390625,2309,3956.26953125,2319L3946.03515625,2329" marker-end="url(#arrowhead237)" style="fill: none;"/><defs><marker id="arrowhead237" viewBox="0 0 10 10" refX="9" refY="5" markerUnits="strokeWidth" markerWidth="8" markerHeight="6" orient="auto"><path d="M 0 0 L 10 5 L 0 10 z" class="arrowhead" style="stroke-width: 1; stroke-dasharray: 1, 0;"/></marker></defs></g></g><g class="edgeLabels"><g class="edgeLabel" transform="translate(274.2734375,365.75)" style="opacity: 1;"><g transform="translate(-39.7734375,-5.75)" class="label"><text><tspan xml:space="preserve" dy="1em" x="1">User to Backend</tspan></text></g></g><g class="edgeLabel" transform="translate(273.4375,697.25)" style="opacity: 1;"><g transform="translate(-38.9375,-5.75)" class="label"><text><tspan xml:space="preserve" dy="1em" x="1">Backend to TCU</tspan></text></g></g><g class="edgeLabel" transform="translate(665.14453125,1646)" style="opacity: 1;"><g transform="translate(-38.14453125,-5.75)" class="label"><text><tspan xml:space="preserve" dy="1em" x="1">TCU to Security</tspan></text></g></g><g class="edgeLabel" transform="translate(1013.84765625,1646)" style="opacity: 1;"><g transform="translate(-48.84765625,-5.75)" class="label"><text><tspan xml:space="preserve" dy="1em" x="1">TCU to Auth Service</tspan></text></g></g><g class="edgeLabel" transform="translate(1060.26953125,1088.75)" style="opacity: 1;"><g transform="translate(-75.26953125,-5.75)" class="label"><text><tspan xml:space="preserve" dy="1em" x="1">TCU to Remote Start Controller</tspan></text></g></g><g class="edgeLabel" transform="translate(1783.32421875,1646)" style="opacity: 1;"><g transform="translate(-74.78515625,-5.75)" class="label"><text><tspan xml:space="preserve" dy="1em" x="1">Remote Start to Safety Monitor</tspan></text></g></g><g class="edgeLabel" transform="translate(2137.08203125,1646)" style="opacity: 1;"><g transform="translate(-93.54296875,-5.75)" class="label"><text><tspan xml:space="preserve" dy="1em" x="1">Remote Start to Vehicle State Manager</tspan></text></g></g><g class="edgeLabel" transform="translate(2526.02734375,1480.25)" style="opacity: 1;"><g transform="translate(-86.90234375,-5.75)" class="label"><text><tspan xml:space="preserve" dy="1em" x="1">Remote Start to Power Management</tspan></text></g></g><g class="edgeLabel" transform="translate(1443.37890625,1646)" style="opacity: 1;"><g transform="translate(-76.83984375,-5.75)" class="label"><text><tspan xml:space="preserve" dy="1em" x="1">Remote Start to Climate Control</tspan></text></g></g><g class="edgeLabel" transform="translate(2317.70703125,1811.75)" style="opacity: 1;"><g transform="translate(-66.375,-5.75)" class="label"><text><tspan xml:space="preserve" dy="1em" x="1">Power Management to ECM</tspan></text></g></g><g class="edgeLabel" transform="translate(2586.7890625,1811.75)" style="opacity: 1;"><g transform="translate(-66.2890625,-5.75)" class="label"><text><tspan xml:space="preserve" dy="1em" x="1">Power Management to BMS</tspan></text></g></g><g class="edgeLabel" transform="translate(1425.5234375,2203.25)" style="opacity: 1;"><g transform="translate(-58.984375,-5.75)" class="label"><text><tspan xml:space="preserve" dy="1em" x="1">Climate Control to HVAC</tspan></text></g></g><g class="edgeLabel" transform="translate(1771.109375,2203.25)" style="opacity: 1;"><g transform="translate(-62.5703125,-5.75)" class="label"><text><tspan xml:space="preserve" dy="1em" x="1">Safety Monitor to Sensors</tspan></text></g></g><g class="edgeLabel" transform="translate(2100.55078125,2203.25)" style="opacity: 1;"><g transform="translate(-57.01171875,-5.75)" class="label"><text><tspan xml:space="preserve" dy="1em" x="1">Vehicle State to Display</tspan></text></g></g><g class="edgeLabel" transform="translate(3726.4140625,2203.25)" style="opacity: 1;"><g transform="translate(-36.47265625,-5.75)" class="label"><text><tspan xml:space="preserve" dy="1em" x="1">ECM to Display</tspan></text></g></g><g class="edgeLabel" transform="translate(4053.828125,2203.25)" style="opacity: 1;"><g transform="translate(-36.38671875,-5.75)" class="label"><text><tspan xml:space="preserve" dy="1em" x="1">BMS to Display</tspan></text></g></g></g><g class="nodes"><g class="node diagram-node" transform="translate(224.5,200)" style="opacity: 1;"><rect rx="6" ry="6" x="-120" y="-100" width="240" height="200" class="label-container"/><g class="label" transform="translate(0,0)"><g transform="translate(-81.85546875,-73.29296875)"/></g></g><g class="node diagram-node" transform="translate(224.5,531.5)" style="opacity: 1;"><rect rx="6" ry="6" x="-134.5" y="-100" width="269" height="200" class="label-container"/><g class="label" transform="translate(0,0)"><g transform="translate(-86.46484375,-73.29296875)"/></g></g><g class="node diagram-node" transform="translate(801.25,923)" style="opacity: 1;"><rect rx="6" ry="6" x="-120.5" y="-100" width="241" height="200" class="label-container"/><g class="label" transform="translate(0,0)"><g transform="translate(-79.62890625,-73.29296875)"/></g></g><g class="node diagram-node" transform="translate(617,2429)" style="opacity: 1;"><rect rx="6" ry="6" x="-138" y="-100" width="276" height="200" class="label-container"/><g class="label" transform="translate(0,0)"><g transform="translate(-95.390625,-73.29296875)"/></g></g><g class="node diagram-node" transform="translate(955,2429)" style="opacity: 1;"><rect rx="6" ry="6" x="-120" y="-100" width="240" height="200" class="label-container"/><g class="label" transform="translate(0,0)"><g transform="translate(-78.4765625,-73.29296875)"/></g></g><g class="node diagram-node" transform="translate(1866.0390625,1314.5)" style="opacity: 1;"><rect rx="6" ry="6" x="-120.5" y="-100" width="241" height="200" class="label-container"/><g class="label" transform="translate(0,0)"><g transform="translate(-80.609375,-73.29296875)"/></g></g><g class="node diagram-node" transform="translate(1698.5390625,2037.5)" style="opacity: 1;"><rect rx="6" ry="6" x="-131" y="-100" width="262" height="200" class="label-container"/><g class="label" transform="translate(0,0)"><g transform="translate(-85.40234375,-73.29296875)"/></g></g><g class="node diagram-node" transform="translate(2033.5390625,2037.5)" style="opacity: 1;"><rect rx="6" ry="6" x="-124" y="-100" width="248" height="200" class="label-container"/><g class="label" transform="translate(0,0)"><g transform="translate(-86.2265625,-73.29296875)"/></g></g><g class="node diagram-node" transform="translate(2429.125,1646)" style="opacity: 1;"><rect rx="6" ry="6" x="-148.5" y="-100" width="297" height="200" class="label-container"/><g class="label" transform="translate(0,0)"><g transform="translate(-88.61328125,-73.29296875)"/></g></g><g class="node diagram-node" transform="translate(1356.5390625,2037.5)" style="opacity: 1;"><rect rx="6" ry="6" x="-131" y="-100" width="262" height="200" class="label-container"/><g class="label" transform="translate(0,0)"><g transform="translate(-98.7734375,-73.29296875)"/></g></g><g class="node diagram-node" transform="translate(3679.94140625,2037.5)" style="opacity: 1;"><rect rx="6" ry="6" x="-120" y="-100" width="240" height="200" class="label-container"/><g class="label" transform="translate(0,0)"><g transform="translate(-67.796875,-73.29296875)"/></g></g><g class="node diagram-node" transform="translate(4007.44140625,2037.5)" style="opacity: 1;"><rect rx="6" ry="6" x="-127.5" y="-100" width="255" height="200" class="label-container"/><g class="label" transform="translate(0,0)"><g transform="translate(-95.95703125,-73.29296875)"/></g></g><g class="node diagram-node" transform="translate(2883.69140625,2429)" style="opacity: 1;"><rect rx="6" ry="6" x="-120" y="-100" width="240" height="200" class="label-container"/><g class="label" transform="translate(0,0)"><g transform="translate(-67.68359375,-73.29296875)"/></g></g><g class="node diagram-node" transform="translate(3203.69140625,2429)" style="opacity: 1;"><rect rx="6" ry="6" x="-120" y="-100" width="240" height="200" class="label-container"/><g class="label" transform="translate(0,0)"><g transform="translate(-74.2890625,-73.29296875)"/></g></g><g class="node diagram-node" transform="translate(3523.69140625,2429)" style="opacity: 1;"><rect rx="6" ry="6" x="-120" y="-100" width="240" height="200" class="label-container"/><g class="label" transform="translate(0,0)"><g transform="translate(-72.39453125,-73.29296875)"/></g></g><g class="node diagram-node" transform="translate(3843.69140625,2429)" style="opacity: 1;"><rect rx="6" ry="6" x="-120" y="-100" width="240" height="200" class="label-container"/><g class="label" transform="translate(0,0)"><g transform="translate(-65.94140625,-73.29296875)"/></g></g><g class="node diagram-node" transform="translate(4406.94140625,2429)" style="opacity: 1;"><rect rx="6" ry="6" x="-152" y="-100" width="304" height="200" class="label-container"/><g class="label" transform="translate(0,0)"><g transform="translate(-85.578125,-35.49609375)"/></g></g><g class="node diagram-node" transform="translate(4758.94140625,2429)" style="opacity: 1;"><rect rx="6" ry="6" x="-120" y="-100" width="240" height="200" class="label-container"/><g class="label" transform="translate(0,0)"><g transform="translate(-50.20703125,-35.49609375)"/></g></g><g class="node diagram-node" transform="translate(5103.94140625,2429)" style="opacity: 1;"><rect rx="6" ry="6" x="-145" y="-100" width="290" height="200" class="label-container"/><g class="label" transform="translate(0,0)"><g transform="translate(-89.5234375,-35.49609375)"/></g></g><g class="node diagram-node" transform="translate(5487.94140625,2429)" style="opacity: 1;"><rect rx="6" ry="6" x="-159" y="-100" width="318" height="200" class="label-container"/><g class="label" transform="translate(0,0)"><g transform="translate(-92.921875,-35.49609375)"/></g></g><g class="node diagram-node" transform="translate(5864.94140625,2429)" style="opacity: 1;"><rect rx="6" ry="6" x="-138" y="-100" width="276" height="200" class="label-container"/><g class="label" transform="translate(0,0)"><g transform="translate(-90.05078125,-35.49609375)"/></g></g><g class="node diagram-node" transform="translate(6206.94140625,2429)" style="opacity: 1;"><rect rx="6" ry="6" x="-124" y="-100" width="248" height="200" class="label-container"/><g class="label" transform="translate(0,0)"><g transform="translate(-86.52734375,-35.49609375)"/></g></g><g class="node diagram-node" transform="translate(6562.94140625,2429)" style="opacity: 1;"><rect rx="6" ry="6" x="-152" y="-100" width="304" height="200" class="label-container"/><g class="label" transform="translate(0,0)"><g transform="translate(-86.08984375,-35.49609375)"/></g></g><g class="node diagram-node" transform="translate(6915.44140625,2429)" style="opacity: 1;"><rect rx="6" ry="6" x="-120.5" y="-100" width="241" height="200" class="label-container"/><g class="label" transform="translate(0,0)"><g transform="translate(-82.25390625,-35.49609375)"/></g></g><g class="node diagram-node" transform="translate(7235.94140625,2429)" style="opacity: 1;"><rect rx="6" ry="6" x="-120" y="-100" width="240" height="200" class="label-container"/><g class="label" transform="translate(0,0)"><g transform="translate(-75.66796875,-35.49609375)"/></g></g></g></g></g></svg>